<svg width="100" height="29" viewBox="0 0 100 29" fill="none" xmlns="http://www.w3.org/2000/svg">
<path d="M96.1441 0H3.8559C1.72634 0 0 1.72634 0 3.8559V24.19C0 26.3195 1.72634 28.0459 3.8559 28.0459H96.1441C98.2737 28.0459 100 26.3195 100 24.19V3.8559C100 1.72634 98.2737 0 96.1441 0Z" fill="black"/>
<path d="M33.3325 7.69682L32.7555 9.44453H32.0137L33.9014 3.88867H34.7668L36.6628 9.44453H35.8961L35.3026 7.69682H33.3327H33.3325ZM35.1542 7.13632L34.6102 5.53767C34.4866 5.17457 34.4041 4.84497 34.3217 4.5236H34.3052C34.2228 4.8532 34.1321 5.19142 34.025 5.52905L33.4809 7.13652H35.1542V7.13632Z" fill="white"/>
<path d="M37.5634 5.45508L38.3464 7.69668C38.4782 8.05978 38.5855 8.38938 38.668 8.71878H38.6928C38.7835 8.38918 38.8989 8.05978 39.0309 7.69668L39.8056 5.45508H40.5641L38.998 9.44438H38.3057L36.7891 5.45508H37.5638H37.5634Z" fill="white"/>
<path d="M43.4267 9.44501L43.369 8.94229H43.3441C43.1216 9.25564 42.6931 9.53569 42.1242 9.53569C41.3165 9.53569 40.9043 8.96716 40.9043 8.39001C40.9043 7.42549 41.7615 6.89808 43.303 6.90611V6.82426C43.303 6.49406 43.2123 5.90066 42.3962 5.90066C42.0253 5.90066 41.6379 6.01601 41.3577 6.19736L41.193 5.71951C41.5228 5.50546 42.0006 5.36523 42.5035 5.36523C43.7234 5.36523 44.0201 6.19756 44.0201 6.99678V8.48871C44.0201 8.83496 44.0366 9.17339 44.0861 9.44521H43.4267V9.44501ZM43.3194 7.40944C42.5282 7.39259 41.6297 7.53301 41.6297 8.30736C41.6297 8.77719 41.943 9.00006 42.314 9.00006C42.8334 9.00006 43.1629 8.67046 43.2783 8.33224C43.3032 8.25781 43.3196 8.17576 43.3196 8.10134V7.40944H43.3194Z" fill="white"/>
<path d="M45.9999 4.33464C46.0083 4.58159 45.827 4.77959 45.5383 4.77959C45.2827 4.77959 45.1016 4.58159 45.1016 4.33464C45.1016 4.08769 45.2911 3.88086 45.5549 3.88086C45.8187 3.88086 45.9999 4.07886 45.9999 4.33464ZM45.1922 9.44494V5.45564H45.9176V9.44494H45.1922Z" fill="white"/>
<path d="M47.123 3.5918H47.8484V9.44435H47.123V3.5918Z" fill="white"/>
<path d="M51.2785 9.44501L51.2207 8.94229H51.1959C50.9734 9.25564 50.5449 9.53569 49.976 9.53569C49.1683 9.53569 48.7559 8.96716 48.7559 8.39001C48.7559 7.42549 49.6131 6.89808 51.1545 6.90611V6.82426C51.1545 6.49406 51.0639 5.90066 50.2478 5.90066C49.8769 5.90066 49.4895 6.01601 49.2092 6.19736L49.0445 5.71951C49.3743 5.50546 49.8522 5.36523 50.3551 5.36523C51.575 5.36523 51.8717 6.19756 51.8717 6.99678V8.48871C51.8717 8.83496 51.8882 9.17339 51.9377 9.44521H51.2783L51.2785 9.44501ZM51.1712 7.40944C50.38 7.39259 49.4815 7.53301 49.4815 8.30736C49.4815 8.77719 49.7948 9.00006 50.1657 9.00006C50.6851 9.00006 51.0147 8.67046 51.1301 8.33224C51.1549 8.25781 51.1714 8.17576 51.1714 8.10134V7.40944H51.1712Z" fill="white"/>
<path d="M53.0117 9.44435C53.0282 9.17253 53.0446 8.7685 53.0446 8.41403V3.5918H53.7618V6.098H53.7782C54.0338 5.65305 54.4954 5.36437 55.1384 5.36437C56.1276 5.36437 56.8281 6.18848 56.8199 7.39995C56.8199 8.82608 55.9215 9.53483 55.0312 9.53483C54.4543 9.53483 53.9927 9.31195 53.696 8.78455H53.6713L53.6382 9.44435H53.0119H53.0117ZM53.7618 7.8449C53.7618 7.93618 53.7782 8.02685 53.7947 8.1087C53.9349 8.61203 54.3552 8.95768 54.8828 8.95768C55.6411 8.95768 56.0945 8.3396 56.0945 7.42483C56.0945 6.6254 55.6824 5.94092 54.9075 5.94092C54.413 5.94092 53.9514 6.27915 53.8031 6.83163C53.7865 6.91428 53.7618 7.01278 53.7618 7.12833V7.8451V7.8449Z" fill="white"/>
<path d="M57.7383 3.5918H58.4637V9.44435H57.7383V3.5918Z" fill="white"/>
<path d="M60.0868 7.58216C60.1035 8.56334 60.7298 8.96736 61.4552 8.96736C61.9746 8.96736 62.2877 8.87669 62.5597 8.76134L62.6833 9.28011C62.4277 9.39546 61.9908 9.52786 61.3561 9.52786C60.128 9.52786 59.3945 8.71981 59.3945 7.51636C59.3945 6.31291 60.1035 5.36523 61.2656 5.36523C62.568 5.36523 62.9142 6.51091 62.9142 7.24454C62.9142 7.39279 62.8978 7.50834 62.8895 7.58216H60.087H60.0868ZM62.2137 7.06319C62.2219 6.60139 62.0241 5.88461 61.208 5.88461C60.4744 5.88461 60.153 6.56046 60.0953 7.06319H62.2137Z" fill="white"/>
<path d="M69.1723 7.41766C69.1723 8.89294 68.1502 9.53589 67.1858 9.53589C66.106 9.53589 65.2734 8.74469 65.2734 7.48346C65.2734 6.14781 66.1471 5.36523 67.2516 5.36523C68.3562 5.36523 69.1723 6.19756 69.1723 7.41766ZM66.0071 7.45859C66.0071 8.33244 66.51 8.99224 67.2187 8.99224C67.9275 8.99224 68.4306 8.34046 68.4306 7.44254C68.4306 6.76669 68.0926 5.90888 67.2352 5.90888C66.3778 5.90888 66.0071 6.70009 66.0071 7.45859Z" fill="white"/>
<path d="M70.0895 6.53579C70.0895 6.12374 70.0813 5.78551 70.0566 5.45591H70.6994L70.7407 6.11491H70.7572C70.955 5.73576 71.4166 5.36523 72.076 5.36523C72.6282 5.36523 73.4856 5.69483 73.4856 7.06319V9.44521H72.7602V7.14584C72.7602 6.50289 72.5211 5.96666 71.837 5.96666C71.3588 5.96666 70.9881 6.30489 70.8643 6.70891C70.8312 6.79959 70.8147 6.92296 70.8147 7.04654V9.44521H70.0893V6.53579H70.0895Z" fill="white"/>
<path d="M77.2882 4.30879V5.45447H78.3267V6.00675H77.2882V8.15787C77.2882 8.65257 77.4282 8.93302 77.8322 8.93302C78.0218 8.93302 78.162 8.90815 78.2525 8.88327L78.2856 9.42692C78.1454 9.4847 77.9229 9.52622 77.6426 9.52622C77.3046 9.52622 77.0326 9.4189 76.8595 9.2209C76.6534 9.00685 76.5792 8.65237 76.5792 8.18255V6.00655H75.9609V5.45427H76.5792V4.49777L77.288 4.30859L77.2882 4.30879Z" fill="white"/>
<path d="M79.1465 3.5918H79.8719V6.08115H79.8883C80.0037 5.87512 80.1852 5.69397 80.4077 5.5704C80.6222 5.44683 80.8775 5.36437 81.1498 5.36437C81.6856 5.36437 82.5428 5.69398 82.5428 7.07055V9.44435H81.8174V7.153C81.8174 6.51005 81.5783 5.9658 80.8942 5.9658C80.4242 5.9658 80.0534 6.296 79.9214 6.6914C79.8801 6.7901 79.8719 6.89743 79.8719 7.03765V9.44435H79.1465V3.5918Z" fill="white"/>
<path d="M84.1259 7.58216C84.1425 8.56334 84.7688 8.96736 85.4943 8.96736C86.0136 8.96736 86.3268 8.87669 86.5988 8.76134L86.7224 9.28011C86.4668 9.39546 86.0299 9.52786 85.3952 9.52786C84.167 9.52786 83.4336 8.71981 83.4336 7.51636C83.4336 6.31291 84.1425 5.36523 85.3047 5.36523C86.607 5.36523 86.9533 6.51091 86.9533 7.24454C86.9533 7.39279 86.9368 7.50834 86.9286 7.58216H84.1261H84.1259ZM86.2525 7.06319C86.2608 6.60139 86.063 5.88461 85.2469 5.88461C84.5133 5.88461 84.1919 6.56046 84.1341 7.06319H86.2525Z" fill="white"/>
<path d="M33.739 19.428L32.7209 22.5115H31.4121L34.7426 12.709H36.2696L39.6146 22.5115H38.2619L37.2147 19.428H33.739ZM36.9531 18.4392L35.993 15.6184C35.7751 14.9779 35.6295 14.3963 35.4841 13.8292H35.455C35.3095 14.4105 35.1495 15.0074 34.9607 15.603L34.0006 18.439H36.9529L36.9531 18.4392Z" fill="white"/>
<path d="M40.9701 17.7696C40.9701 16.8684 40.941 16.1414 40.9121 15.4724H42.0608L42.1192 16.679H42.1483C42.672 15.8216 43.5008 15.3125 44.6498 15.3125C46.3512 15.3125 47.6309 16.7525 47.6309 18.8898C47.6309 21.4202 46.0894 22.6708 44.4316 22.6708C43.5008 22.6708 42.6865 22.2634 42.2646 21.5661H42.2355V25.3909H40.9703V17.7696H40.9701ZM42.2353 19.6464C42.2353 19.8348 42.2644 20.01 42.2933 20.1698C42.526 21.0567 43.2969 21.6678 44.2131 21.6678C45.5656 21.6678 46.3508 20.5618 46.3508 18.9477C46.3508 17.5374 45.6092 16.3296 44.2567 16.3296C43.3842 16.3296 42.5697 16.9561 42.3226 17.9152C42.2789 18.0751 42.2353 18.2645 42.2353 18.4386V19.6464Z" fill="white"/>
<path d="M49.2513 17.7696C49.2513 16.8684 49.2222 16.1414 49.1934 15.4724H50.3422L50.4002 16.679H50.4293C50.9531 15.8216 51.7818 15.3125 52.9309 15.3125C54.6323 15.3125 55.9119 16.7525 55.9119 18.8898C55.9119 21.4202 54.3705 22.6708 52.7126 22.6708C51.7818 22.6708 50.9675 22.2634 50.5457 21.5661H50.5166V25.3909H49.2513V17.7696ZM50.5166 19.6464C50.5166 19.8348 50.5457 20.01 50.5749 20.1698C50.8077 21.0567 51.5782 21.6678 52.4944 21.6678C53.8469 21.6678 54.6321 20.5618 54.6321 18.9477C54.6321 17.5374 53.8904 16.3296 52.5379 16.3296C51.6655 16.3296 50.851 16.9561 50.6038 17.9152C50.5601 18.0751 50.5166 18.2645 50.5166 18.4386V19.6464Z" fill="white"/>
<path d="M60.4842 20.9696C61.0514 21.3188 61.8803 21.6101 62.7531 21.6101C64.0474 21.6101 64.8035 20.9256 64.8035 19.9368C64.8035 19.0203 64.2801 18.4969 62.9565 17.9889C61.3571 17.4218 60.3679 16.5929 60.3679 15.2109C60.3679 13.6833 61.6331 12.5488 63.5381 12.5488C64.5417 12.5488 65.2687 12.7821 65.7051 13.0297L65.356 14.0622C65.036 13.8869 64.3817 13.5968 63.4946 13.5968C62.1565 13.5968 61.6476 14.396 61.6476 15.0653C61.6476 15.9818 62.2438 16.4318 63.5965 16.9564C65.2543 17.5959 66.0977 18.3952 66.0977 19.8351C66.0977 21.3485 64.9781 22.6569 62.6657 22.6569C61.7204 22.6569 60.6879 22.3799 60.1641 22.0316L60.484 20.9694L60.4842 20.9696Z" fill="white"/>
<path d="M69.2864 13.4514V15.4727H71.119V16.4473H69.2864V20.2426C69.2864 21.1152 69.534 21.6103 70.2465 21.6103C70.5807 21.6103 70.8283 21.5666 70.9882 21.5227L71.0462 22.4818C70.799 22.5837 70.4064 22.6571 69.9121 22.6571C69.3159 22.6571 68.836 22.4677 68.5305 22.1183C68.167 21.7405 68.0362 21.1152 68.0362 20.2863V16.4473H66.9453V15.4727H68.0362V13.7852L69.2866 13.4512L69.2864 13.4514Z" fill="white"/>
<path d="M78.8437 18.9337C78.8437 21.5364 77.0402 22.6708 75.3389 22.6708C73.4335 22.6708 71.9648 21.2748 71.9648 19.0496C71.9648 16.6943 73.5063 15.3125 75.4552 15.3125C77.4042 15.3125 78.8437 16.781 78.8437 18.9337ZM73.2592 19.0059C73.2592 20.5476 74.1461 21.7117 75.3969 21.7117C76.6477 21.7117 77.5349 20.5618 77.5349 18.9774C77.5349 17.785 76.9383 16.2716 75.4264 16.2716C73.9144 16.2716 73.2594 17.6676 73.2594 19.0059H73.2592Z" fill="white"/>
<path d="M80.4623 17.6676C80.4623 16.8387 80.4478 16.127 80.4043 15.4722H81.5239L81.5676 16.8542H81.6256C81.9456 15.9081 82.7165 15.3125 83.5745 15.3125C83.72 15.3125 83.8217 15.3267 83.938 15.3562V16.5629C83.8072 16.5332 83.6762 16.5192 83.5017 16.5192C82.6 16.5192 81.9602 17.2024 81.7859 18.1627C81.7566 18.3369 81.7275 18.5405 81.7275 18.7584V22.5109H80.4623V17.6676Z" fill="white"/>
<path d="M85.7877 19.224C85.817 20.9552 86.9221 21.668 88.2018 21.668C89.118 21.668 89.6707 21.5081 90.1508 21.3045L90.369 22.2199C89.9182 22.4235 89.1473 22.6568 88.0273 22.6568C85.8605 22.6568 84.5664 21.2311 84.5664 19.1078C84.5664 16.9846 85.8172 15.3125 87.8676 15.3125C90.1654 15.3125 90.7762 17.3338 90.7762 18.6282C90.7762 18.89 90.7472 19.0936 90.7327 19.2238H85.7879L85.7877 19.224ZM89.5401 18.3086C89.5545 17.4939 89.2055 16.2281 87.7657 16.2281C86.4714 16.2281 85.9043 17.4217 85.8024 18.3086H89.5401Z" fill="white"/>
<path d="M24.5146 17.6945C24.7692 17.739 24.9212 18.0048 24.835 18.2483C23.9366 20.784 22.3603 22.7518 20.5668 22.7518C20.034 22.7518 19.5196 22.6001 19.0362 22.3255C18.0319 21.7538 16.8189 21.7538 15.8148 22.3255C15.3311 22.6001 14.819 22.7518 14.2862 22.7518C11.4911 22.7518 9.22461 17.9751 9.22461 13.719C9.22461 9.46289 11.4911 7.33984 14.2862 7.33984C14.9869 7.33984 15.6529 7.51197 16.2596 7.83575C16.9912 8.22914 17.86 8.22914 18.5914 7.83775C19.1981 7.51197 19.8661 7.33984 20.5668 7.33984C22.2343 7.33984 23.7152 8.09674 24.6356 9.61214C24.7868 9.86109 24.6438 10.1811 24.3591 10.2431C22.6517 10.615 21.3763 12.1336 21.3763 13.9525C21.3763 15.7714 22.7306 17.3825 24.5146 17.6945Z" fill="white"/>
<path d="M20.0102 5.83269C19.2505 6.8576 18.1648 7.43956 17.1823 7.451C16.9074 6.50753 17.1472 5.29867 17.9067 4.27376C18.6664 3.24885 19.7531 2.66768 20.7356 2.65625C21.0105 3.59971 20.7697 4.80778 20.01 5.83269H20.0102Z" fill="white"/>
</svg>
