<svg width="100" height="29" viewBox="0 0 100 29" fill="none" xmlns="http://www.w3.org/2000/svg">
<path d="M96.1441 0H3.8559C1.72634 0 0 1.72634 0 3.8559V24.19C0 26.3195 1.72634 28.0459 3.8559 28.0459H96.1441C98.2737 28.0459 100 26.3195 100 24.19V3.8559C100 1.72634 98.2737 0 96.1441 0Z" fill="white"/>
<path d="M33.3344 7.69682L32.7575 9.44453H32.0156L33.9034 3.88867H34.7688L36.6647 9.44453H35.898L35.3046 7.69682H33.3346H33.3344ZM35.1562 7.13632L34.6121 5.53767C34.4885 5.17457 34.4061 4.84497 34.3236 4.5236H34.3072C34.2247 4.8532 34.1341 5.19142 34.0269 5.52905L33.4829 7.13652H35.1562V7.13632Z" fill="#1D1D1F"/>
<path d="M37.5634 5.45508L38.3464 7.69668C38.4782 8.05978 38.5855 8.38938 38.668 8.71878H38.6928C38.7835 8.38918 38.8989 8.05978 39.0309 7.69668L39.8056 5.45508H40.5641L38.998 9.44438H38.3057L36.7891 5.45508H37.5638H37.5634Z" fill="#1D1D1F"/>
<path d="M43.4287 9.44501L43.3709 8.94229H43.346C43.1236 9.25564 42.6951 9.53569 42.1261 9.53569C41.3185 9.53569 40.9062 8.96716 40.9062 8.39001C40.9062 7.42549 41.7634 6.89808 43.3049 6.90611V6.82426C43.3049 6.49406 43.2143 5.90066 42.3982 5.90066C42.0272 5.90066 41.6399 6.01601 41.3596 6.19736L41.1949 5.71951C41.5247 5.50546 42.0026 5.36523 42.5055 5.36523C43.7254 5.36523 44.0221 6.19756 44.0221 6.99678V8.48871C44.0221 8.83496 44.0386 9.17339 44.0881 9.44521H43.4287V9.44501ZM43.3214 7.40944C42.5302 7.39259 41.6316 7.53301 41.6316 8.30736C41.6316 8.77719 41.945 9.00006 42.3159 9.00006C42.8353 9.00006 43.1649 8.67046 43.2802 8.33224C43.3051 8.25781 43.3216 8.17576 43.3216 8.10134V7.40944H43.3214Z" fill="#1D1D1F"/>
<path d="M46.0038 4.33464C46.0122 4.58159 45.8309 4.77959 45.5422 4.77959C45.2866 4.77959 45.1055 4.58159 45.1055 4.33464C45.1055 4.08769 45.295 3.88086 45.5588 3.88086C45.8226 3.88086 46.0038 4.07886 46.0038 4.33464ZM45.1961 9.44494V5.45564H45.9215V9.44494H45.1961Z" fill="#1D1D1F"/>
<path d="M47.125 3.5918H47.8504V9.44435H47.125V3.5918Z" fill="#1D1D1F"/>
<path d="M51.2805 9.44501L51.2227 8.94229H51.1978C50.9753 9.25564 50.5468 9.53569 49.9779 9.53569C49.1703 9.53569 48.7578 8.96716 48.7578 8.39001C48.7578 7.42549 49.615 6.89808 51.1565 6.90611V6.82426C51.1565 6.49406 51.0658 5.90066 50.2497 5.90066C49.8788 5.90066 49.4914 6.01601 49.2112 6.19736L49.0465 5.71951C49.3763 5.50546 49.8541 5.36523 50.3571 5.36523C51.577 5.36523 51.8737 6.19756 51.8737 6.99678V8.48871C51.8737 8.83496 51.8901 9.17339 51.9397 9.44521H51.2803L51.2805 9.44501ZM51.1731 7.40944C50.3819 7.39259 49.4834 7.53301 49.4834 8.30736C49.4834 8.77719 49.7968 9.00006 50.1677 9.00006C50.6871 9.00006 51.0167 8.67046 51.132 8.33224C51.1569 8.25781 51.1733 8.17576 51.1733 8.10134V7.40944H51.1731Z" fill="#1D1D1F"/>
<path d="M53.0156 9.44435C53.0321 9.17253 53.0485 8.7685 53.0485 8.41403V3.5918H53.7657V6.098H53.7821C54.0377 5.65305 54.4993 5.36437 55.1423 5.36437C56.1315 5.36437 56.832 6.18848 56.8238 7.39995C56.8238 8.82608 55.9255 9.53483 55.0352 9.53483C54.4582 9.53483 53.9966 9.31195 53.6999 8.78455H53.6752L53.6421 9.44435H53.0158H53.0156ZM53.7657 7.8449C53.7657 7.93618 53.7822 8.02685 53.7986 8.1087C53.9388 8.61203 54.3591 8.95768 54.8867 8.95768C55.645 8.95768 56.0984 8.3396 56.0984 7.42483C56.0984 6.6254 55.6863 5.94092 54.9114 5.94092C54.4169 5.94092 53.9553 6.27915 53.807 6.83163C53.7904 6.91428 53.7657 7.01278 53.7657 7.12833V7.8451V7.8449Z" fill="#1D1D1F"/>
<path d="M57.7422 3.5918H58.4676V9.44435H57.7422V3.5918Z" fill="#1D1D1F"/>
<path d="M60.0868 7.58216C60.1035 8.56334 60.7298 8.96736 61.4552 8.96736C61.9746 8.96736 62.2877 8.87669 62.5597 8.76134L62.6833 9.28011C62.4277 9.39546 61.9908 9.52786 61.3561 9.52786C60.128 9.52786 59.3945 8.71981 59.3945 7.51636C59.3945 6.31291 60.1035 5.36523 61.2656 5.36523C62.568 5.36523 62.9142 6.51091 62.9142 7.24454C62.9142 7.39279 62.8978 7.50834 62.8895 7.58216H60.087H60.0868ZM62.2137 7.06319C62.2219 6.60139 62.0241 5.88461 61.208 5.88461C60.4744 5.88461 60.153 6.56046 60.0953 7.06319H62.2137Z" fill="#1D1D1F"/>
<path d="M69.1723 7.41766C69.1723 8.89294 68.1502 9.53589 67.1858 9.53589C66.106 9.53589 65.2734 8.74469 65.2734 7.48346C65.2734 6.14781 66.1471 5.36523 67.2516 5.36523C68.3562 5.36523 69.1723 6.19756 69.1723 7.41766ZM66.0071 7.45859C66.0071 8.33244 66.51 8.99224 67.2187 8.99224C67.9275 8.99224 68.4306 8.34046 68.4306 7.44254C68.4306 6.76669 68.0926 5.90888 67.2352 5.90888C66.3778 5.90888 66.0071 6.70009 66.0071 7.45859Z" fill="#1D1D1F"/>
<path d="M70.0915 6.53579C70.0915 6.12374 70.0833 5.78551 70.0586 5.45591H70.7013L70.7427 6.11491H70.7591C70.9569 5.73576 71.4185 5.36523 72.0779 5.36523C72.6302 5.36523 73.4876 5.69483 73.4876 7.06319V9.44521H72.7622V7.14584C72.7622 6.50289 72.5231 5.96666 71.839 5.96666C71.3607 5.96666 70.99 6.30489 70.8662 6.70891C70.8331 6.79959 70.8167 6.92296 70.8167 7.04654V9.44521H70.0913V6.53579H70.0915Z" fill="#1D1D1F"/>
<path d="M77.2921 4.30879V5.45447H78.3306V6.00675H77.2921V8.15787C77.2921 8.65257 77.4321 8.93302 77.8361 8.93302C78.0257 8.93302 78.1659 8.90815 78.2564 8.88327L78.2895 9.42692C78.1493 9.4847 77.9268 9.52622 77.6465 9.52622C77.3085 9.52622 77.0365 9.4189 76.8634 9.2209C76.6573 9.00685 76.5831 8.65237 76.5831 8.18255V6.00655H75.9648V5.45427H76.5831V4.49777L77.2919 4.30859L77.2921 4.30879Z" fill="#1D1D1F"/>
<path d="M79.1484 3.5918H79.8738V6.08115H79.8903C80.0056 5.87512 80.1872 5.69397 80.4097 5.5704C80.6241 5.44683 80.8795 5.36437 81.1517 5.36437C81.6875 5.36437 82.5447 5.69398 82.5447 7.07055V9.44435H81.8193V7.153C81.8193 6.51005 81.5802 5.9658 80.8961 5.9658C80.4261 5.9658 80.0554 6.296 79.9234 6.6914C79.8821 6.7901 79.8738 6.89743 79.8738 7.03765V9.44435H79.1484V3.5918Z" fill="#1D1D1F"/>
<path d="M84.1298 7.58216C84.1465 8.56334 84.7728 8.96736 85.4982 8.96736C86.0175 8.96736 86.3307 8.87669 86.6027 8.76134L86.7263 9.28011C86.4707 9.39546 86.0338 9.52786 85.3991 9.52786C84.1709 9.52786 83.4375 8.71981 83.4375 7.51636C83.4375 6.31291 84.1465 5.36523 85.3086 5.36523C86.6109 5.36523 86.9572 6.51091 86.9572 7.24454C86.9572 7.39279 86.9407 7.50834 86.9325 7.58216H84.13H84.1298ZM86.2565 7.06319C86.2647 6.60139 86.0669 5.88461 85.2508 5.88461C84.5172 5.88461 84.1958 6.56046 84.138 7.06319H86.2565Z" fill="#1D1D1F"/>
<path d="M33.7409 19.428L32.7228 22.5115H31.4141L34.7446 12.709H36.2716L39.6166 22.5115H38.2638L37.2167 19.428H33.7409ZM36.9551 18.4392L35.995 15.6184C35.7771 14.9779 35.6315 14.3963 35.486 13.8292H35.4569C35.3115 14.4105 35.1514 15.0074 34.9626 15.603L34.0025 18.439H36.9549L36.9551 18.4392Z" fill="#1D1D1F"/>
<path d="M40.972 17.7696C40.972 16.8684 40.943 16.1414 40.9141 15.4724H42.0627L42.1211 16.679H42.1502C42.674 15.8216 43.5027 15.3125 44.6518 15.3125C46.3532 15.3125 47.6328 16.7525 47.6328 18.8898C47.6328 21.4202 46.0914 22.6708 44.4335 22.6708C43.5027 22.6708 42.6884 22.2634 42.2666 21.5661H42.2375V25.3909H40.9722V17.7696H40.972ZM42.2373 19.6464C42.2373 19.8348 42.2664 20.01 42.2953 20.1698C42.528 21.0567 43.2989 21.6678 44.2151 21.6678C45.5676 21.6678 46.3528 20.5618 46.3528 18.9477C46.3528 17.5374 45.6111 16.3296 44.2586 16.3296C43.3862 16.3296 42.5717 16.9561 42.3245 17.9152C42.2808 18.0751 42.2373 18.2645 42.2373 18.4386V19.6464Z" fill="#1D1D1F"/>
<path d="M49.2533 17.7696C49.2533 16.8684 49.2242 16.1414 49.1953 15.4724H50.3442L50.4022 16.679H50.4313C50.955 15.8216 51.7838 15.3125 52.9329 15.3125C54.6342 15.3125 55.9139 16.7525 55.9139 18.8898C55.9139 21.4202 54.3724 22.6708 52.7146 22.6708C51.7838 22.6708 50.9695 22.2634 50.5476 21.5661H50.5185V25.3909H49.2533V17.7696ZM50.5185 19.6464C50.5185 19.8348 50.5476 20.01 50.5769 20.1698C50.8096 21.0567 51.5801 21.6678 52.4963 21.6678C53.8488 21.6678 54.634 20.5618 54.634 18.9477C54.634 17.5374 53.8924 16.3296 52.5399 16.3296C51.6674 16.3296 50.8529 16.9561 50.6058 17.9152C50.5621 18.0751 50.5185 18.2645 50.5185 18.4386V19.6464Z" fill="#1D1D1F"/>
<path d="M60.4881 20.9696C61.0553 21.3188 61.8842 21.6101 62.757 21.6101C64.0514 21.6101 64.8074 20.9256 64.8074 19.9368C64.8074 19.0203 64.2841 18.4969 62.9604 17.9889C61.361 17.4218 60.3718 16.5929 60.3718 15.2109C60.3718 13.6833 61.637 12.5488 63.542 12.5488C64.5457 12.5488 65.2727 12.7821 65.709 13.0297L65.3599 14.0622C65.04 13.8869 64.3856 13.5968 63.4985 13.5968C62.1604 13.5968 61.6515 14.396 61.6515 15.0653C61.6515 15.9818 62.2477 16.4318 63.6004 16.9564C65.2582 17.5959 66.1016 18.3952 66.1016 19.8351C66.1016 21.3485 64.982 22.6569 62.6696 22.6569C61.7243 22.6569 60.6918 22.3799 60.168 22.0316L60.4879 20.9694L60.4881 20.9696Z" fill="#1D1D1F"/>
<path d="M69.2864 13.4514V15.4727H71.119V16.4473H69.2864V20.2426C69.2864 21.1152 69.534 21.6103 70.2465 21.6103C70.5807 21.6103 70.8283 21.5666 70.9882 21.5227L71.0462 22.4818C70.799 22.5837 70.4064 22.6571 69.9121 22.6571C69.3159 22.6571 68.836 22.4677 68.5305 22.1183C68.167 21.7405 68.0362 21.1152 68.0362 20.2863V16.4473H66.9453V15.4727H68.0362V13.7852L69.2866 13.4512L69.2864 13.4514Z" fill="#1D1D1F"/>
<path d="M78.8476 18.9337C78.8476 21.5364 77.0441 22.6708 75.3428 22.6708C73.4374 22.6708 71.9688 21.2748 71.9688 19.0496C71.9688 16.6943 73.5102 15.3125 75.4591 15.3125C77.4081 15.3125 78.8476 16.781 78.8476 18.9337ZM73.2631 19.0059C73.2631 20.5476 74.15 21.7117 75.4008 21.7117C76.6516 21.7117 77.5389 20.5618 77.5389 18.9774C77.5389 17.785 76.9422 16.2716 75.4303 16.2716C73.9183 16.2716 73.2633 17.6676 73.2633 19.0059H73.2631Z" fill="#1D1D1F"/>
<path d="M80.4642 17.6676C80.4642 16.8387 80.4498 16.127 80.4062 15.4722H81.5258L81.5696 16.8542H81.6276C81.9475 15.9081 82.7185 15.3125 83.5765 15.3125C83.7219 15.3125 83.8236 15.3267 83.94 15.3562V16.5629C83.8092 16.5332 83.6782 16.5192 83.5036 16.5192C82.6019 16.5192 81.9622 17.2024 81.7878 18.1627C81.7586 18.3369 81.7295 18.5405 81.7295 18.7584V22.5109H80.4642V17.6676Z" fill="#1D1D1F"/>
<path d="M85.7916 19.224C85.8209 20.9552 86.9261 21.668 88.2057 21.668C89.1219 21.668 89.6746 21.5081 90.1547 21.3045L90.3729 22.2199C89.9222 22.4235 89.1512 22.6568 88.0312 22.6568C85.8644 22.6568 84.5703 21.2311 84.5703 19.1078C84.5703 16.9846 85.8211 15.3125 87.8715 15.3125C90.1693 15.3125 90.7801 17.3338 90.7801 18.6282C90.7801 18.89 90.7511 19.0936 90.7366 19.2238H85.7918L85.7916 19.224ZM89.544 18.3086C89.5584 17.4939 89.2094 16.2281 87.7696 16.2281C86.4753 16.2281 85.9082 17.4217 85.8063 18.3086H89.544Z" fill="#1D1D1F"/>
<path d="M24.5166 17.6945C24.7711 17.739 24.9232 18.0048 24.8369 18.2483C23.9386 20.784 22.3622 22.7518 20.5688 22.7518C20.036 22.7518 19.5216 22.6001 19.0381 22.3255C18.0339 21.7538 16.8208 21.7538 15.8168 22.3255C15.3331 22.6001 14.8209 22.7518 14.2881 22.7518C11.493 22.7518 9.22656 17.9751 9.22656 13.719C9.22656 9.46289 11.493 7.33984 14.2881 7.33984C14.9888 7.33984 15.6549 7.51197 16.2615 7.83575C16.9931 8.22914 17.862 8.22914 18.5934 7.83775C19.2 7.51197 19.868 7.33984 20.5688 7.33984C22.2362 7.33984 23.7171 8.09674 24.6375 9.61214C24.7888 9.86109 24.6457 10.1811 24.3611 10.2431C22.6537 10.615 21.3782 12.1336 21.3782 13.9525C21.3782 15.7714 22.7325 17.3825 24.5166 17.6945Z" fill="#1D1D1F"/>
<path d="M20.0122 5.83269C19.2525 6.8576 18.1668 7.43956 17.1842 7.451C16.9094 6.50753 17.1491 5.29867 17.9086 4.27376C18.6683 3.24885 19.755 2.66768 20.7376 2.65625C21.0124 3.59971 20.7717 4.80778 20.012 5.83269H20.0122Z" fill="#1D1D1F"/>
</svg>
