<svg width="30" height="30" viewBox="0 0 30 30" fill="none" xmlns="http://www.w3.org/2000/svg">
<path d="M0 15.0839C0 22.5414 5.41636 28.7457 12.4978 30L12.5788 29.9352C12.5518 29.9299 12.5248 29.9245 12.4978 29.919V19.2749H8.74998V15.0851H12.4978V11.733C12.4978 7.96199 14.9154 5.86648 18.3319 5.86648C19.417 5.86648 20.5827 6.03308 21.6666 6.20087V10.0551H19.7496C17.9165 10.0551 17.4999 10.9774 17.4999 12.1507V15.0839H21.4998L20.8335 19.2737L17.4976 19.2773V29.919C17.4713 29.9244 17.4449 29.9297 17.4186 29.9348L17.4999 30C24.5836 28.7434 30 22.5414 30 15.0839C30 6.78752 23.2511 0 15.0006 0C6.75003 0 0 6.78752 0 15.0839Z" fill="#1D1D1F"/>
</svg>
