<svg width="30" height="30" viewBox="0 0 30 30" fill="none" xmlns="http://www.w3.org/2000/svg">
<path d="M11.667 15C11.667 16.8408 13.1592 18.3335 15 18.3335C16.8408 18.3335 18.333 16.8408 18.333 15C18.333 13.1592 16.8408 11.6665 15 11.6665C13.1592 11.6665 11.667 13.1592 11.667 15Z" fill="#1D1D1F"/>
<path fill-rule="evenodd" clip-rule="evenodd" d="M19.041 6.86035C17.9863 6.81201 17.6699 6.80176 15 6.80176C12.3301 6.80176 12.0137 6.81201 10.959 6.86035C9.98438 6.90479 9.45508 7.06738 9.10254 7.20459C8.63574 7.38574 8.30273 7.60254 7.95215 7.95264C7.60254 8.30225 7.38574 8.63574 7.2041 9.10205C7.06738 9.45459 6.9043 9.98438 6.86035 10.959C6.83789 11.4487 6.82324 11.7793 6.81445 12.2598C6.80469 12.8145 6.80176 13.5693 6.80176 15C6.80176 17.6699 6.81152 17.9863 6.86035 19.041C6.9043 20.0156 7.06738 20.5454 7.2041 20.8979C7.38574 21.3643 7.60254 21.6978 7.95215 22.0474C8.0957 22.1904 8.23633 22.3115 8.38379 22.417C8.59766 22.5688 8.82715 22.6885 9.10254 22.7954C9.45508 22.9326 9.98438 23.0952 10.959 23.1401C12.0137 23.188 12.3301 23.1982 15 23.1982C17.6699 23.1982 17.9863 23.188 19.041 23.1401C19.6641 23.1113 20.1055 23.0347 20.4346 22.9468C20.6201 22.8975 20.7705 22.8447 20.8975 22.7954C21.3643 22.6143 21.6973 22.3975 22.0479 22.0474C22.3975 21.6978 22.6143 21.3643 22.7959 20.8979C22.9326 20.5454 23.0957 20.0156 23.1396 19.041C23.1885 17.9863 23.1982 17.6699 23.1982 15C23.1982 12.3301 23.1885 12.0137 23.1396 10.959C23.1104 10.3179 23.0303 9.86914 22.9395 9.53662C22.8926 9.36377 22.8428 9.22266 22.7959 9.10205C22.6143 8.63574 22.3975 8.30225 22.0479 7.95264C21.8633 7.76855 21.6846 7.62158 21.4883 7.49707C21.3105 7.38477 21.1191 7.29053 20.8975 7.20459C20.5449 7.06738 20.0156 6.90479 19.041 6.86035ZM9.86523 15C9.86523 12.1641 12.1641 9.86475 15 9.86475C17.8359 9.86475 20.1348 12.1641 20.1348 15C20.1348 17.8359 17.8359 20.1353 15 20.1353C12.1641 20.1353 9.86523 17.8359 9.86523 15ZM21.1377 10.5566C21.3838 10.3369 21.5381 10.0176 21.5381 9.66211C21.5381 8.99902 21.001 8.46191 20.3379 8.46191C19.6748 8.46191 19.1377 8.99902 19.1377 9.66211C19.1377 10.3247 19.6748 10.8618 20.3379 10.8618C20.6455 10.8618 20.9258 10.7466 21.1377 10.5566Z" fill="#1D1D1F"/>
<path fill-rule="evenodd" clip-rule="evenodd" d="M15 30C23.2842 30 30 23.2842 30 15C30 6.71582 23.2842 0 15 0C6.71582 0 0 6.71582 0 15C0 23.2842 6.71582 30 15 30ZM10.877 5.06006C11.9434 5.01172 12.2842 5 15 5C17.7158 5 18.0566 5.01172 19.123 5.06006C20.1875 5.10889 20.9141 5.27783 21.5508 5.5249C22.208 5.78076 22.7656 6.12256 23.3213 6.67822C23.5801 6.93652 23.792 7.19482 23.9707 7.46338C24.1768 7.77344 24.3379 8.09717 24.4746 8.44971C24.7227 9.08594 24.8916 9.8125 24.9395 10.877C24.9883 11.9438 25 12.2842 25 15C25 17.7158 24.9883 18.0566 24.9395 19.123C24.8916 20.1875 24.7227 20.9141 24.4746 21.5503C24.2197 22.208 23.8779 22.7656 23.3213 23.3218C22.7656 23.8774 22.208 24.2192 21.5508 24.4751C20.9141 24.7222 20.1875 24.8911 19.123 24.9399C18.0566 24.9888 17.7158 25 15 25C12.2842 25 11.9434 24.9888 10.877 24.9399C9.8125 24.8911 9.08594 24.7222 8.44922 24.4751C7.99609 24.2988 7.58984 24.0815 7.2002 23.7817C7.02441 23.6465 6.85156 23.4946 6.67871 23.3218C6.12207 22.7656 5.78027 22.208 5.52539 21.5503C5.27734 20.9141 5.1084 20.1875 5.06055 19.123C5.01172 18.0566 5 17.7158 5 15C5 12.2842 5.01172 11.9438 5.06055 10.877C5.1084 9.8125 5.27734 9.08594 5.52539 8.44971C5.78027 7.79199 6.12207 7.23438 6.67871 6.67822C7.23438 6.12256 7.79199 5.78076 8.44922 5.5249C9.08594 5.27783 9.8125 5.10889 10.877 5.06006Z" fill="#1D1D1F"/>
</svg>
