<svg width="30" height="30" viewBox="0 0 30 30" fill="none" xmlns="http://www.w3.org/2000/svg">
<path fill-rule="evenodd" clip-rule="evenodd" d="M25.6066 4.3934C31.4645 10.2513 31.4645 19.7487 25.6066 25.6066C19.7487 31.4645 10.2513 31.4645 4.3934 25.6066C-1.46447 19.7487 -1.46447 10.2513 4.3934 4.3934C10.2513 -1.46447 19.7487 -1.46447 25.6066 4.3934ZM16.0365 13.5157C16.0193 13.5335 15.9975 13.5559 15.9692 13.5863C15.9692 13.4476 15.9684 13.3149 15.9677 13.1865C15.9658 12.8593 15.9641 12.5603 15.9755 12.2631C15.9819 12.0696 15.9264 12.0101 15.7274 12.0117C14.6229 12.0204 13.5176 12.0228 12.4132 12.0101C12.1848 12.007 12.1381 12.0728 12.1397 12.294C12.1531 14.3142 12.1571 16.3352 12.1571 18.3554C12.1563 19.9974 12.1492 21.6394 12.1333 23.2815C12.1309 23.5019 12.2031 23.5423 12.4037 23.5407C13.5081 23.532 14.6134 23.5328 15.7178 23.5399C15.905 23.5415 15.989 23.5011 15.9739 23.2949C15.9618 23.1298 15.9646 22.9632 15.9675 22.7966C15.9687 22.724 15.97 22.6514 15.97 22.579C15.97 22.0587 15.9705 21.5384 15.971 21.0181C15.9723 19.717 15.9736 18.4155 15.9668 17.1146C15.962 16.3526 16.1951 15.7049 16.7922 15.2157C17.8958 14.3086 19.4467 14.7875 19.8423 16.1505C19.966 16.5746 19.9961 17.0107 19.9969 17.45L19.9975 18.1316C19.9991 19.8352 20.0006 21.5392 19.9929 23.2426C19.9914 23.4765 20.0524 23.5439 20.2895 23.5415C21.3741 23.5288 22.4595 23.5288 23.5442 23.5415C23.7828 23.5439 23.8407 23.4757 23.8391 23.2426C23.8314 21.566 23.8325 19.8899 23.8337 18.2139L23.8344 17.0313C23.8344 16.5326 23.7971 16.0379 23.7218 15.5447C23.4046 13.465 22.1622 12.1061 20.2205 11.8072C18.5412 11.5487 17.1006 11.9816 16.0929 13.4523C16.0802 13.4709 16.0642 13.4873 16.0365 13.5157ZM10.031 19.0763C10.0303 20.4635 10.0296 21.8509 10.0362 23.2379C10.037 23.4638 9.99181 23.5447 9.74523 23.5415C8.65109 23.5273 7.55614 23.5304 6.462 23.5392C6.25902 23.5407 6.19004 23.49 6.19084 23.2767C6.19639 19.605 6.19559 15.934 6.19004 12.2623C6.19004 12.0712 6.23682 12.007 6.43742 12.0086C7.55218 12.0181 8.66615 12.0189 9.78012 12.0078C10.0021 12.0054 10.037 12.0863 10.0362 12.2829C10.0305 13.7481 10.0309 15.2127 10.0313 16.6772L10.0315 17.7758C10.0315 18.2093 10.0312 18.6428 10.031 19.0763ZM10.2162 8.98776C10.5642 7.62403 9.61043 6.46091 8.14206 6.45932C7.17556 6.45853 6.40648 6.92394 6.10599 7.69301C5.62472 8.92433 6.35257 10.1992 7.65841 10.4109C8.88814 10.6107 9.95295 10.0177 10.2162 8.98776Z" fill="#1D1D1F"/>
</svg>
