<svg width="100" height="29" viewBox="0 0 100 29" fill="none" xmlns="http://www.w3.org/2000/svg">
<path d="M97.5333 0.046875H2.46668C1.10437 0.046875 0 1.15125 0 2.51356V25.6261C0 26.9884 1.10437 28.0928 2.46668 28.0928H97.5333C98.8956 28.0928 100 26.9884 100 25.6261V2.51356C100 1.15125 98.8956 0.046875 97.5333 0.046875Z" fill="white"/>
<path d="M18.3718 10.6798L14.9821 14.0695L6.24219 5.32817C6.56136 4.66717 7.40451 4.348 8.10905 4.75463L18.3718 10.6798Z" fill="#00FF7C"/>
<path d="M22.2464 15.2217L18.3741 17.4579L14.9844 14.0694L18.3741 10.6797L22.2464 12.9159C23.1343 13.4284 23.1343 14.7093 22.2464 15.2219V15.2217Z" fill="#FFD001"/>
<path d="M14.9842 14.0694L6.24428 22.8094C6.16063 22.6372 6.11328 22.4426 6.11328 22.2306V5.90808C6.11328 5.69604 6.16063 5.50025 6.24428 5.32812L14.9842 14.0694Z" fill="#00D3FF"/>
<path d="M18.3718 17.4588L8.10905 23.3852C7.40451 23.7918 6.56015 23.4724 6.24219 22.8102L14.9821 14.0703L18.3718 17.4588Z" fill="#FF2132"/>
<path d="M33.8666 8.59691C33.5829 8.694 33.0226 8.85449 32.3608 8.85449C31.6187 8.85449 31.0077 8.67354 30.5276 8.23441C30.1057 7.84403 29.8438 7.21712 29.8438 6.4853C29.8512 5.08505 30.855 4.06055 32.499 4.06055C33.0665 4.06055 33.5103 4.17911 33.7211 4.2766L33.5683 4.7713C33.3065 4.66016 32.9791 4.56929 32.4844 4.56929C31.2913 4.56929 30.513 5.28025 30.513 6.45742C30.513 7.63459 31.2623 8.35297 32.4043 8.35297C32.8192 8.35297 33.1026 8.2968 33.2483 8.22759V6.82694H32.2517V6.33906H33.8666V8.59711V8.59691Z" fill="#1D1D1F"/>
<path d="M37.3746 6.60395H35.4687V8.29688H37.5929V8.80583H34.8359V4.10938H37.4838V4.61832H35.4687V6.10242H37.3746V6.60395Z" fill="#1D1D1F"/>
<path d="M39.464 4.62514H37.9727V4.10938H41.6025V4.62514H40.1039V8.80583H39.464V4.62514Z" fill="#1D1D1F"/>
<path d="M44.328 4.10938V8.80583H43.6953V4.10938H44.328Z" fill="#1D1D1F"/>
<path d="M46.3661 4.62514H44.875V4.10938H48.5048V4.62514H47.0065V8.80583H46.3661V4.62514Z" fill="#1D1D1F"/>
<path d="M54.7857 6.40922C54.7857 8.02612 53.7602 8.88272 52.5088 8.88272C51.2574 8.88272 50.3047 7.921 50.3047 6.49989C50.3047 5.00896 51.272 4.0332 52.5816 4.0332C53.8912 4.0332 54.7857 5.01579 54.7857 6.40922ZM50.9813 6.48564C50.9813 7.48929 51.5489 8.38782 52.5453 8.38782C53.5417 8.38782 54.1167 7.50273 54.1167 6.4367C54.1167 5.50346 53.6073 4.52771 52.5527 4.52771C51.4981 4.52771 50.9815 5.45472 50.9815 6.48564H50.9813Z" fill="#1D1D1F"/>
<path d="M55.6094 8.80583V4.10938H56.3003L57.8714 6.48538C58.2353 7.03625 58.519 7.53096 58.7517 8.01141L58.7662 8.00459C58.708 7.37709 58.6933 6.80576 58.6933 6.07454V4.10938H59.2899V8.80583H58.6498L57.0931 6.423C56.7512 5.90041 56.4238 5.36378 56.1765 4.85544L56.1548 4.86226C56.1913 5.45446 56.2058 6.01857 56.2058 6.79914V8.80583H55.6094Z" fill="#1D1D1F"/>
<path d="M37.162 20.7859C36.6458 20.9702 35.6267 21.2751 34.4226 21.2751C33.0727 21.2751 31.961 20.9315 31.0877 20.0974C30.3202 19.3561 29.8438 18.1653 29.8438 16.7753C29.8572 14.116 31.6833 12.1699 34.674 12.1699C35.7063 12.1699 36.5136 12.3952 36.8971 12.5804L36.6191 13.52C36.1429 13.3088 35.5473 13.1365 34.6475 13.1365C32.4771 13.1365 31.0612 14.4865 31.0612 16.7225C31.0612 18.9585 32.4244 20.3227 34.5019 20.3227C35.2564 20.3227 35.7723 20.2159 36.0371 20.0845V17.4241H34.2242V16.4975H37.1622V20.7861L37.162 20.7859Z" fill="#1D1D1F"/>
<path d="M44.7516 17.928C44.7516 20.2964 43.1104 21.3287 41.5623 21.3287C39.8286 21.3287 38.4922 20.0583 38.4922 18.0335C38.4922 15.8892 39.8948 14.6328 41.6682 14.6328C43.4416 14.6328 44.7516 15.9689 44.7516 17.928ZM39.67 17.9938C39.67 19.3967 40.477 20.4561 41.6153 20.4561C42.7535 20.4561 43.5608 19.4097 43.5608 17.9681C43.5608 16.883 43.0179 15.5061 41.6419 15.5061C40.266 15.5061 39.67 16.7765 39.67 17.994V17.9938Z" fill="#1D1D1F"/>
<path d="M52.0172 17.928C52.0172 20.2964 50.376 21.3287 48.8279 21.3287C47.0943 21.3287 45.7578 20.0583 45.7578 18.0335C45.7578 15.8892 47.1605 14.6328 48.9339 14.6328C50.7072 14.6328 52.0172 15.9689 52.0172 17.928ZM46.9356 17.9938C46.9356 19.3967 47.7426 20.4561 48.8809 20.4561C50.0191 20.4561 50.8264 19.4097 50.8264 17.9681C50.8264 16.883 50.2835 15.5061 48.9076 15.5061C47.5316 15.5061 46.9356 16.7765 46.9356 17.994V17.9938Z" fill="#1D1D1F"/>
<path d="M59.0124 14.7785C58.9859 15.2419 58.9596 15.758 58.9596 16.538V20.2565C58.9596 21.7261 58.6684 22.6261 58.0465 23.1809C57.4244 23.7639 56.5246 23.9493 55.7174 23.9493C54.9101 23.9493 54.1029 23.7639 53.5869 23.4203L53.8782 22.5334C54.3017 22.7974 54.9633 23.0355 55.7575 23.0355C56.9485 23.0355 57.8218 22.4138 57.8218 20.7995V20.0852H57.7953C57.4378 20.68 56.7497 21.1562 55.7573 21.1562C54.1691 21.1562 53.0312 19.8071 53.0312 18.0335C53.0312 15.8633 54.4471 14.6328 55.916 14.6328C57.0278 14.6328 57.6362 15.2148 57.9143 15.7438H57.9407L57.9939 14.7783H59.0128L59.0124 14.7785ZM57.8083 17.3063C57.8083 17.1069 57.7951 16.9356 57.7421 16.7761C57.5305 16.1017 56.9614 15.5456 56.1146 15.5456C55.0028 15.5456 54.209 16.4852 54.209 17.9679C54.209 19.2243 54.8441 20.2707 56.1014 20.2707C56.8161 20.2707 57.4645 19.8203 57.7159 19.0789C57.7821 18.8807 57.8085 18.6554 57.8085 18.4572V17.3063H57.8083Z" fill="#1D1D1F"/>
<path d="M60.8906 11.7871H62.0552V21.1832H60.8906V11.7871Z" fill="#1D1D1F"/>
<path d="M64.6659 18.192C64.6923 19.7674 65.6982 20.416 66.8627 20.416C67.6965 20.416 68.1994 20.2705 68.6361 20.0852L68.8347 20.9181C68.4245 21.1034 67.7229 21.3157 66.7042 21.3157C64.7323 21.3157 63.5547 20.0183 63.5547 18.0863C63.5547 16.1542 64.6925 14.6328 66.5586 14.6328C68.6495 14.6328 69.2052 16.4722 69.2052 17.65C69.2052 17.8881 69.1787 18.0734 69.1657 18.192H64.6663H64.6659ZM68.08 17.3591C68.0935 16.6178 67.7759 15.4669 66.4655 15.4669C65.2877 15.4669 64.7716 16.552 64.6789 17.3591H68.0798H68.08Z" fill="#1D1D1F"/>
<path d="M72.3711 12.3696C72.9268 12.2769 73.6548 12.1973 74.5808 12.1973C75.7188 12.1973 76.5528 12.4623 77.082 12.9385C77.5717 13.362 77.8628 14.0106 77.8628 14.8038C77.8628 15.597 77.6246 16.2466 77.1747 16.71C76.5658 17.3587 75.5734 17.6895 74.4486 17.6895C74.1046 17.6895 73.787 17.6755 73.5222 17.6099V21.1829H72.3711V12.3698V12.3696ZM73.5222 16.67C73.7737 16.7358 74.0913 16.7627 74.4751 16.7627C75.8645 16.7627 76.7115 16.0883 76.7115 14.8575C76.7115 13.6268 75.8779 13.1098 74.6075 13.1098C74.1046 13.1098 73.7206 13.1498 73.5222 13.2025V16.67Z" fill="#1D1D1F"/>
<path d="M79.3086 11.7871H80.4731V21.1832H79.3086V11.7871Z" fill="#1D1D1F"/>
<path d="M85.9794 21.1831L85.8867 20.376H85.8468C85.4895 20.8792 84.8016 21.3285 83.8884 21.3285C82.5917 21.3285 81.9297 20.4158 81.9297 19.4891C81.9297 17.9406 83.3061 17.0939 85.7808 17.1067V16.9753C85.7808 16.4451 85.6351 15.4926 84.325 15.4926C83.7293 15.4926 83.1077 15.678 82.6575 15.9689L82.3929 15.2017C82.9223 14.8581 83.6896 14.6328 84.4971 14.6328C86.4554 14.6328 86.9321 15.9689 86.9321 17.2524V19.6476C86.9321 20.2037 86.9585 20.7468 87.038 21.1831H85.9794ZM85.8073 17.915C84.5368 17.8881 83.0942 18.1132 83.0942 19.3567C83.0942 20.111 83.5971 20.4687 84.1928 20.4687C85.0265 20.4687 85.5559 19.9397 85.7408 19.3967C85.7808 19.2771 85.807 19.1455 85.807 19.0259V17.915H85.8073Z" fill="#1D1D1F"/>
<path d="M89.1378 14.7773L90.5405 18.5616C90.6861 18.9851 90.8448 19.4882 90.9508 19.872H90.9772C91.0966 19.4884 91.2288 18.9992 91.3875 18.5359L92.6579 14.7775H93.8887L92.142 19.343C91.3082 21.5401 90.7391 22.6639 89.9451 23.3526C89.376 23.8557 88.807 24.0541 88.5158 24.1069L88.2245 23.1273C88.5158 23.0346 88.8995 22.8492 89.2436 22.5583C89.5611 22.3072 89.9583 21.8568 90.2227 21.262C90.2759 21.1425 90.3154 21.0498 90.3154 20.984C90.3154 20.9182 90.2889 20.8245 90.2362 20.679L87.8672 14.7773H89.1376H89.1378Z" fill="#1D1D1F"/>
</svg>
