<svg width="30" height="30" viewBox="0 0 30 30" fill="none" xmlns="http://www.w3.org/2000/svg">
<path d="M10.3094 17.0499H11.4392V16.1614H8.08777V17.0499H9.21731V22.271H10.3094V17.0499Z" fill="#1D1D1F"/>
<path d="M13.3643 22.494H14.3331L14.3327 17.9864H13.3639V21.4102C13.2727 21.508 13.1733 21.5887 13.0632 21.6524C12.9545 21.7156 12.8633 21.7467 12.7935 21.7467C12.7025 21.7467 12.6362 21.7243 12.5942 21.675C12.5552 21.6281 12.5341 21.551 12.5341 21.4445V17.9864H11.5654V21.7548C11.5654 22.0246 11.6232 22.224 11.7355 22.3589C11.8504 22.494 12.0172 22.5607 12.2422 22.5607C12.4243 22.5607 12.6116 22.5144 12.805 22.4163C12.9993 22.3221 13.1844 22.1828 13.3643 22V22.494Z" fill="#1D1D1F"/>
<path fill-rule="evenodd" clip-rule="evenodd" d="M18.1647 22.1733C18.3167 22.0024 18.3924 21.7578 18.3924 21.4395L18.3922 18.9382C18.3922 18.5693 18.3119 18.2878 18.1496 18.0955C18.0074 17.9261 17.8088 17.9283 17.5536 17.9313C17.5192 17.9317 17.4837 17.9321 17.4472 17.9321C17.2966 17.9321 16.8761 17.967 16.7279 18.0394C16.5828 18.1105 16.4442 18.2157 16.3131 18.352V16.2605H15.3334V22.4938H16.3131V22.1486C16.4395 22.2878 16.5791 22.3886 16.7273 22.4538C16.8748 22.5199 17.3155 22.5518 17.5063 22.5518C17.7931 22.5518 18.0137 22.3439 18.1647 22.1733ZM16.513 18.6915C16.5804 18.6615 16.6496 18.6479 16.7186 18.6479C16.8489 18.6479 17.2218 18.6871 17.2923 18.7647C17.361 18.8436 17.3941 18.9584 17.3941 19.1113V21.4397C17.3941 21.5839 17.3654 21.6861 17.3103 21.7499C17.2544 21.8144 16.8959 21.8463 16.7767 21.8463C16.6946 21.8463 16.6178 21.8289 16.543 21.7978C16.4684 21.7657 16.3912 21.7099 16.3133 21.6374V18.8293C16.3792 18.7677 16.4455 18.7204 16.513 18.6915Z" fill="#1D1D1F"/>
<path fill-rule="evenodd" clip-rule="evenodd" d="M20.0628 20.2743H21.9162L21.9166 19.125C21.9166 18.6978 21.7976 18.3706 21.5596 18.1422C21.3214 17.9145 20.9805 17.8006 20.5367 17.8006C20.102 17.8006 19.7504 17.9232 19.4761 18.169C19.2013 18.4148 19.0638 18.7352 19.0638 19.1248V21.1496C19.0638 21.5839 19.1902 21.9256 19.4382 22.1713C19.6871 22.4195 20.0293 22.5427 20.4636 22.5427C20.9467 22.5427 21.3094 22.4266 21.5509 22.1945C21.7959 21.9596 21.9164 21.6114 21.9164 21.1496V20.9182H20.9193V21.1234C20.9193 21.3888 20.8858 21.5591 20.823 21.6376C20.7588 21.7154 20.6467 21.7544 20.4857 21.7544C20.3313 21.7544 20.2221 21.7097 20.1572 21.6174C20.0937 21.5253 20.0628 21.3607 20.0628 21.1236V20.2743ZM20.1629 18.7136C20.2306 18.6295 20.34 18.5889 20.4949 18.5889C20.6422 18.5889 20.7514 18.6295 20.8171 18.7136C20.8847 18.7925 20.9193 18.9283 20.9193 19.1175V19.573H20.0628V19.1175C20.0628 18.9283 20.0948 18.7925 20.1629 18.7136Z" fill="#1D1D1F"/>
<path d="M14.5241 8.9046C14.4448 8.9759 14.4046 9.06688 14.4046 9.18005L14.4044 12.0108C14.4044 12.1535 14.4419 12.2628 14.5163 12.3409C14.5908 12.4205 14.6981 12.4584 14.837 12.4584C14.9796 12.4584 15.0924 12.4193 15.1765 12.3395C15.2608 12.2597 15.3029 12.1496 15.3029 12.0108V9.18005C15.3029 9.06688 15.2601 8.9759 15.1748 8.9046C15.089 8.83476 14.9766 8.80056 14.8372 8.80056C14.7091 8.80056 14.6053 8.83476 14.5241 8.9046Z" fill="#1D1D1F"/>
<path fill-rule="evenodd" clip-rule="evenodd" d="M30 15C30 23.2843 23.2843 30 15 30C6.71573 30 0 23.2843 0 15C0 6.71573 6.71573 0 15 0C23.2843 0 30 6.71573 30 15ZM9.14151 14.4231H20.8583C22.7206 14.4231 24.2308 15.823 24.2308 17.6742V20.8784C24.2308 22.7296 22.7206 24.2308 20.8583 24.2308H9.14151C7.27881 24.2308 5.76923 22.7294 5.76923 20.8784V17.6487C5.76923 15.7975 7.27881 14.4231 9.14151 14.4231ZM18.5452 13.1372C18.3359 13.2466 18.1327 13.3034 17.9354 13.3034C17.6909 13.3034 17.5091 13.2244 17.3854 13.0688C17.2633 12.9154 17.2012 12.6839 17.2012 12.3743V8.03185H18.2512V12.0155C18.2512 12.1376 18.2753 12.2263 18.3193 12.281C18.3621 12.337 18.4342 12.3643 18.5328 12.3643C18.61 12.3643 18.7081 12.3283 18.8268 12.2553C18.9442 12.1815 19.0528 12.0889 19.1501 11.9759V8.03185H20.2024V13.2273H19.1501V12.6522C18.958 12.864 18.7561 13.0263 18.5452 13.1372ZM15.967 12.9795C15.6933 13.2321 15.3184 13.359 14.8407 13.359C14.3805 13.359 14.0122 13.2276 13.7363 12.9666C13.4608 12.7046 13.3228 12.355 13.3228 11.9131V9.21984C13.3228 8.8159 13.4641 8.49651 13.7468 8.25817C14.0294 8.01982 14.4107 7.90065 14.8883 7.90065C15.3237 7.90065 15.6799 8.02667 15.959 8.27703C16.2352 8.52802 16.3744 8.85382 16.3744 9.24906V11.9337C16.3744 12.3784 16.2383 12.7252 15.967 12.9795ZM11.8593 13.2276H10.6756L10.6754 10.0223L9.26564 5.76923H10.4582L11.2269 8.58501H11.3013L12.034 5.76923H13.237L11.8593 9.89114V13.2276Z" fill="#1D1D1F"/>
</svg>
