<svg width="30" height="30" viewBox="0 0 30 30" fill="none" xmlns="http://www.w3.org/2000/svg">
<path d="M28.3419 8.1382C29.4013 10.1951 30 12.5276 30 14.9993C30 15.721 29.9473 16.4291 29.85 17.1237C21.2716 25.0782 7.47703 27.4012 3.38784 24.0727C1.53649 22.5659 1.42838 20.0009 1.96892 18.2414C4.20946 10.9437 9.52297 7.25168 13.2189 5.38267C17.9973 2.9677 21.8041 2.6339 23.8216 3.23798C24.95 3.57719 26.1338 4.85698 26.3216 6.44894C26.7527 10.1261 19.877 16.0953 13.4432 15.648C11.6514 15.5237 10.4297 14.925 10.3703 15.6926C10.3527 15.9237 10.6757 17.1305 12.8216 17.5116C15.2581 17.9441 18.4122 17.494 22.3257 15.0885C26.3824 12.5952 27.9162 10.1342 28.3432 8.13685L28.3419 8.1382ZM26.7027 23.0902C25.8027 23.6024 24.9392 24.047 24.15 24.397C19.2527 26.6039 11.7581 28.5553 7.10405 27.754C9.3973 29.177 12.1027 30 15 30C20.7405 30 25.727 26.7742 28.2486 22.0375C27.7527 22.4348 27.2297 22.7889 26.7027 23.0902ZM0.514865 17.2062C3.78649 7.31655 13.7432 1.83522 20.4392 1.01761C18.7527 0.360827 16.9189 0 15 0C6.71622 0 0 6.71517 0 15.0007C0 16.0359 0.105406 17.0481 0.305406 18.0238C0.366216 17.7589 0.435135 17.4859 0.514865 17.2062Z" fill="url(#paint0_linear_3143_3560)"/>
<g opacity="0.4">
<mask id="mask0_3143_3560" style="mask-type:luminance" maskUnits="userSpaceOnUse" x="0" y="0" width="30" height="30">
<path d="M28.3419 8.1382C29.4013 10.1951 30 12.5276 30 14.9993C30 15.721 29.9473 16.4291 29.85 17.1237C21.2716 25.0782 7.47703 27.4012 3.38784 24.0727C1.53649 22.5659 1.42838 20.0009 1.96892 18.2414C4.20946 10.9437 9.52297 7.25168 13.2189 5.38267C17.9973 2.9677 21.8041 2.6339 23.8216 3.23798C24.95 3.57719 26.1338 4.85698 26.3216 6.44894C26.7527 10.1261 19.877 16.0953 13.4432 15.648C11.6514 15.5237 10.4297 14.925 10.3703 15.6926C10.3527 15.9237 10.6757 17.1305 12.8216 17.5116C15.2581 17.9441 18.4122 17.494 22.3257 15.0885C26.3824 12.5952 27.9162 10.1342 28.3432 8.13685L28.3419 8.1382ZM26.7027 23.0902C25.8027 23.6024 24.9392 24.047 24.15 24.397C19.2527 26.6039 11.7581 28.5553 7.10405 27.754C9.3973 29.177 12.1027 30 15 30C20.7405 30 25.727 26.7742 28.2486 22.0375C27.7527 22.4348 27.2297 22.7889 26.7027 23.0902ZM0.514865 17.2062C3.78649 7.31655 13.7432 1.83522 20.4392 1.01761C18.7527 0.360827 16.9189 0 15 0C6.71622 0 0 6.71517 0 15.0007C0 16.0359 0.105406 17.0481 0.305406 18.0238C0.366216 17.7589 0.435135 17.4859 0.514865 17.2062Z" fill="white"/>
</mask>
<g mask="url(#mask0_3143_3560)">
<path d="M15 30.0014C23.2843 30.0014 30 23.2853 30 15.0007C30 6.71603 23.2843 0 15 0C6.71573 0 0 6.71603 0 15.0007C0 23.2853 6.71573 30.0014 15 30.0014Z" fill="#E84E0F"/>
<path d="M19.8348 10.3272C22.6457 9.11769 25.7375 6.61353 22.2416 1.86331C19.2713 0.222699 15.7267 -0.425979 12.12 0.279458C4.17403 1.83223 -1.13948 9.52447 0.214575 17.5073C0.632142 19.9682 1.62674 22.1859 3.03484 24.0467C2.38755 20.5115 2.32809 12.3746 15.4551 11.38C16.9619 11.2651 18.4484 10.9259 19.8362 10.3286L19.8348 10.3272Z" fill="#F39200"/>
<path d="M20.8081 14.9536C13.646 17.2401 12.9676 28.6353 22.5419 27.9717C27.8135 24.9067 30.8865 18.7862 29.7797 12.4264C29.4392 10.4682 28.7311 8.66543 27.7419 7.07617C27.7203 8.21676 27.2352 12.9035 20.8081 14.9549V14.9536Z" fill="#F39200"/>
</g>
</g>
<defs>
<linearGradient id="paint0_linear_3143_3560" x1="2.11487" y1="22.4402" x2="27.979" y2="7.5081" gradientUnits="userSpaceOnUse">
<stop stop-color="#D21317"/>
<stop offset="0.2" stop-color="#E65014"/>
<stop offset="0.6" stop-color="#F39205"/>
<stop offset="1" stop-color="#FBBA06"/>
</linearGradient>
</defs>
</svg>
