<svg width="168" height="167" viewBox="0 0 168 167" fill="none" xmlns="http://www.w3.org/2000/svg">
<g clip-path="url(#clip0_3002_2707)">
<path d="M120.594 22.4519C123.521 28.1244 125.175 34.5572 125.175 41.3739C125.175 43.3642 125.029 45.3171 124.761 47.2328C101.061 69.17 62.9515 75.5767 51.6544 66.3971C46.5397 62.2415 46.2411 55.1676 47.7344 50.315C53.9243 30.1892 68.6037 20.007 78.8144 14.8525C92.0155 8.19233 102.532 7.27176 108.106 8.93774C111.223 9.87322 114.494 13.4027 115.013 17.7931C116.204 27.9343 97.2085 44.3965 79.4341 43.1629C74.4837 42.82 71.1088 41.1689 70.9445 43.2859C70.896 43.9232 71.7883 47.2514 77.7168 48.3024C84.448 49.4951 93.1616 48.254 103.973 41.6199C115.181 34.7436 119.418 27.9567 120.598 22.4482L120.594 22.4519ZM116.066 63.6876C113.579 65.1001 111.194 66.3263 109.013 67.2916C95.4837 73.3778 74.7787 78.7596 61.9211 76.5495C68.2565 80.474 75.7307 82.7438 83.7349 82.7438C99.5941 82.7438 113.37 73.8474 120.337 60.7842C118.966 61.88 117.522 62.8564 116.066 63.6876ZM43.7173 47.4601C52.7557 20.1859 80.2629 5.0691 98.7616 2.81425C94.1024 1.00293 89.0363 0.0078125 83.7349 0.0078125C60.8496 0.0078125 42.2949 18.5273 42.2949 41.3777C42.2949 44.2326 42.5861 47.0241 43.1387 49.715C43.3067 48.9845 43.4971 48.2316 43.7173 47.4601Z" fill="url(#paint0_linear_3002_2707)"/>
<g opacity="0.4">
<mask id="mask0_3002_2707" style="mask-type:luminance" maskUnits="userSpaceOnUse" x="42" y="0" width="84" height="83">
<path d="M120.594 22.4519C123.521 28.1244 125.175 34.5572 125.175 41.3739C125.175 43.3642 125.029 45.3171 124.761 47.2328C101.061 69.17 62.9515 75.5767 51.6544 66.3971C46.5397 62.2415 46.2411 55.1676 47.7344 50.315C53.9243 30.1892 68.6037 20.007 78.8144 14.8525C92.0155 8.19233 102.532 7.27176 108.106 8.93774C111.223 9.87322 114.494 13.4027 115.013 17.7931C116.204 27.9343 97.2085 44.3965 79.4341 43.1629C74.4837 42.82 71.1088 41.1689 70.9445 43.2859C70.896 43.9232 71.7883 47.2514 77.7168 48.3024C84.448 49.4951 93.1616 48.254 103.973 41.6199C115.181 34.7436 119.418 27.9567 120.598 22.4482L120.594 22.4519ZM116.066 63.6876C113.579 65.1001 111.194 66.3263 109.013 67.2916C95.4837 73.3778 74.7787 78.7596 61.9211 76.5495C68.2565 80.474 75.7307 82.7438 83.7349 82.7438C99.5941 82.7438 113.37 73.8474 120.337 60.7842C118.966 61.88 117.522 62.8564 116.066 63.6876ZM43.7173 47.4601C52.7557 20.1859 80.2629 5.0691 98.7616 2.81425C94.1024 1.00293 89.0363 0.0078125 83.7349 0.0078125C60.8496 0.0078125 42.2949 18.5273 42.2949 41.3777C42.2949 44.2326 42.5861 47.0241 43.1387 49.715C43.3067 48.9845 43.4971 48.2316 43.7173 47.4601Z" fill="white"/>
</mask>
<g mask="url(#mask0_3002_2707)">
<path d="M83.7349 82.7475C106.622 82.7475 125.175 64.2256 125.175 41.3777C125.175 18.5297 106.622 0.0078125 83.7349 0.0078125C60.8482 0.0078125 42.2949 18.5297 42.2949 41.3777C42.2949 64.2256 60.8482 82.7475 83.7349 82.7475Z" fill="#E84E0F"/>
<path d="M97.0851 28.4901C104.85 25.1544 113.392 18.2483 103.734 5.14782C95.5283 0.623231 85.7358 -1.16574 75.7715 0.779765C53.8195 5.0621 39.14 26.2763 42.8808 48.2917C44.0344 55.0786 46.7822 61.1946 50.6723 66.3267C48.884 56.5769 48.7198 34.1365 84.9854 31.3935C89.148 31.0767 93.2547 30.1412 97.0888 28.4938L97.0851 28.4901Z" fill="#F39200"/>
<path d="M99.7778 41.2511C79.9911 47.5572 78.1169 78.9834 104.568 77.1534C119.131 68.7006 127.621 51.8209 124.563 34.2816C123.623 28.8812 121.666 23.9093 118.933 19.5264C118.874 22.672 117.533 35.5972 99.7778 41.2549V41.2511Z" fill="#F39200"/>
</g>
</g>
<path d="M1.35129 156.434C1.35129 159.237 2.60943 160.59 5.19289 160.59C7.41423 160.59 8.64623 159.576 8.81796 157.862H10.1209C9.92676 160.396 8.13849 161.775 5.21529 161.775C1.83289 161.775 -0.00390625 159.941 -0.00390625 156.535V154.071C-0.00390625 150.665 1.78436 148.831 5.09583 148.831C8.40729 148.831 10.218 150.665 10.218 154.071V155.592H1.35129V156.438V156.434ZM1.35129 154.164V154.429H8.88889V154.164C8.88889 151.362 7.67929 150.009 5.12196 150.009C2.56463 150.009 1.35129 151.362 1.35129 154.164Z" fill="white"/>
<path d="M23.8483 153.296V161.484H22.4968V153.441C22.4968 151.172 21.627 150.061 19.7678 150.061C18.028 150.061 16.6504 151.026 15.6835 153.274V161.484H14.332V149.118H15.4931L15.5416 151.511C16.6056 149.699 18.0766 148.831 19.988 148.831C22.5491 148.831 23.852 150.378 23.852 153.3L23.8483 153.296Z" fill="white"/>
<path d="M29.1911 156.434C29.1911 159.237 30.4493 160.59 33.0327 160.59C35.2541 160.59 36.4861 159.576 36.6578 157.862H37.9607C37.7666 160.396 35.9783 161.775 33.0551 161.775C29.6727 161.775 27.8359 159.941 27.8359 156.535V154.071C27.8359 150.665 29.6242 148.831 32.9357 148.831C36.2471 148.831 38.0578 150.665 38.0578 154.071V155.592H29.1911V156.438V156.434ZM29.1911 154.164V154.429H36.7287V154.164C36.7287 151.362 35.5191 150.009 32.9618 150.009C30.4045 150.009 29.1911 151.362 29.1911 154.164Z" fill="white"/>
<path d="M48.0183 148.876V150.18H47.3649C45.2631 150.18 44.0311 151.317 43.5233 153.971V161.481H42.1719V149.114H43.3329L43.3815 151.649C44.0833 149.74 45.3377 148.872 47.2231 148.872H48.022L48.0183 148.876Z" fill="white"/>
<path d="M60.6294 149.118V162.147C60.6294 165.408 58.9158 167 55.4848 167C52.416 167 50.7248 165.722 50.5568 163.355H51.8112C51.9568 165.021 53.2598 165.818 55.4363 165.818C58.0683 165.818 59.2779 164.659 59.2779 162.147V158.704C58.1654 160.396 56.6683 161.238 54.7606 161.238C51.9344 161.238 50.2656 159.427 50.2656 156.143V153.896C50.2656 150.635 51.9344 148.823 54.7606 148.823C56.743 148.823 58.2624 149.718 59.4011 151.529L59.472 149.114H60.6331L60.6294 149.118ZM59.2779 156.698V153.34C58.311 151.19 56.7878 150.008 54.88 150.008C52.7782 150.008 51.6171 151.41 51.6171 153.993V156.046C51.6171 158.655 52.7782 160.03 54.88 160.03C56.7878 160.03 58.311 158.871 59.2779 156.698Z" fill="white"/>
<path d="M74.0648 149.118L68.4424 164.347C67.692 166.374 66.9192 167.004 65.2056 167.004H64.2648V165.819H65.0861C66.2472 165.819 66.6803 165.457 67.1656 164.153L68.3192 160.903L63.6562 149.118H65.1309L69.0472 159.237L72.6947 149.118H74.0723H74.0648Z" fill="white"/>
<path d="M123.606 149.118L119.548 161.484H118.074L114.669 151.026L111.238 161.484H109.789L105.705 149.118H107.154L110.536 159.792L113.993 149.118H115.345L118.824 159.792L122.229 149.118H123.606Z" fill="white"/>
<path d="M135.519 153.248V161.484H134.358L134.31 159.431C133.175 160.978 131.581 161.775 129.598 161.775C127.086 161.775 125.562 160.471 125.562 158.104C125.562 155.737 127.134 154.362 130.636 154.362H134.164V153.251C134.164 151.079 133.078 150.016 130.759 150.016C128.609 150.016 127.377 150.933 127.257 152.722H125.928C126.171 150.162 127.836 148.835 130.785 148.835C133.925 148.835 135.523 150.333 135.523 153.255L135.519 153.248ZM134.168 157.955V155.514H130.711C128.03 155.514 126.918 156.311 126.918 158.048C126.918 159.785 127.907 160.609 129.77 160.609C131.633 160.609 133.152 159.692 134.168 157.951V157.955Z" fill="white"/>
<path d="M145.308 160.299V161.48H143.568C141.369 161.48 140.402 160.392 140.402 157.809V150.224H138.084V149.114H140.429L140.548 145.733H141.758V149.114H145.14V150.224H141.758V157.809C141.758 159.691 142.265 160.295 143.837 160.295H145.312L145.308 160.299Z" fill="white"/>
<path d="M149.176 156.434C149.176 159.237 150.434 160.59 153.017 160.59C155.239 160.59 156.471 159.576 156.642 157.862H157.949C157.755 160.396 155.967 161.775 153.043 161.775C149.661 161.775 147.824 159.941 147.824 156.535V154.071C147.824 150.665 149.612 148.831 152.924 148.831C156.235 148.831 158.046 150.665 158.046 154.071V155.592H149.179V156.438L149.176 156.434ZM149.176 154.164V154.429H156.713V154.164C156.713 151.362 155.504 150.009 152.946 150.009C150.389 150.009 149.176 151.362 149.176 154.164Z" fill="white"/>
<path d="M168.001 148.876V150.18H167.347C165.245 150.18 164.013 151.317 163.506 153.971V161.481H162.154V149.114H163.315L163.364 151.649C164.066 149.74 165.32 148.872 167.205 148.872H168.001V148.876Z" fill="white"/>
<path d="M88.0844 151.895C86.8038 150.568 86.3446 149.793 86.3446 148.708C86.3446 146.967 87.5281 145.954 89.2678 145.954C91.0076 145.954 91.9745 146.897 91.9745 148.224C91.9745 148.92 91.7281 149.509 91.142 150.08L91.982 150.94C92.8854 150.128 93.2812 149.271 93.2812 148.197C93.2812 146.144 91.758 144.769 89.294 144.769C86.7105 144.769 85.0156 146.338 85.0156 148.73C85.0156 150.035 85.5233 151.097 86.8262 152.521C84.2652 153.922 83.2012 155.372 83.2012 157.377C83.2012 160.083 85.2769 161.771 88.6145 161.771C90.8134 161.771 92.5756 161.048 93.8076 159.647L95.6182 161.48H97.4289L94.5766 158.559C95.1628 157.552 95.566 156.304 95.7713 154.835L94.5505 153.583C94.4796 155.178 94.1398 156.531 93.6097 157.567L88.9468 152.785M88.663 160.564C86.1244 160.564 84.5788 159.308 84.5788 157.28C84.5788 155.733 85.4262 154.623 87.67 153.415L92.8892 158.704C91.8737 159.934 90.4476 160.564 88.663 160.564Z" fill="white"/>
<path d="M23.8477 128.999V134.381H0.361328V100.167H23.3437V105.549H6.51013V114.251H20.8237V119.585H6.51013V128.992H23.8477V128.999Z" fill="white"/>
<path d="M27.2227 116.771H40.1213L41.6147 122.253H27.2227V116.771Z" fill="white"/>
<path d="M83.6181 108.27L75.808 134.381H69.5584L64.216 116.421L58.8251 134.381H52.5269L44.7168 108.27H51.0672L56.0064 126.886L61.4981 108.27H67.0421L72.5861 126.934L77.5253 108.27H83.6219H83.6181Z" fill="white"/>
<path d="M85.8398 123.614V119.037C85.8398 111.49 89.7711 107.666 97.4318 107.666C105.093 107.666 109.072 111.49 109.072 119.037V123.614C109.072 131.161 105.093 134.985 97.4318 134.985C89.7711 134.985 85.8398 131.161 85.8398 123.614ZM103.024 123.465V119.19C103.024 114.714 101.262 112.701 97.4318 112.701C93.6014 112.701 91.8878 114.714 91.8878 119.19V123.465C91.8878 127.941 93.6014 129.957 97.4318 129.957C101.262 129.957 103.024 127.945 103.024 123.465Z" fill="white"/>
<path d="M129.083 107.767V113.502H127.724C123.692 113.502 121.576 115.262 120.821 119.589V134.381H114.773V108.27H119.914L120.164 113.048C121.322 109.425 123.539 107.767 127.22 107.767H129.087H129.083Z" fill="white"/>
<path d="M132.812 97.6514H138.861V134.381H132.812V97.6514Z" fill="white"/>
<path d="M167.636 97.6514V134.381H162.447L162.245 130.811C160.177 133.677 157.609 134.985 154.081 134.985C148.085 134.985 144.605 131.314 144.605 124.218V118.482C144.605 111.389 148.081 107.666 154.081 107.666C157.205 107.666 159.625 108.721 161.588 110.987V97.6551H167.636V97.6514ZM161.588 125.075V117.58C160.177 114.412 158.06 112.701 155.238 112.701C152.416 112.701 150.653 114.565 150.653 118.538V124.121C150.653 128.045 152.319 129.957 155.29 129.957C158.06 129.957 160.177 128.246 161.588 125.078V125.075Z" fill="white"/>
</g>
<defs>
<linearGradient id="paint0_linear_3002_2707" x1="48.1376" y1="61.8949" x2="119.529" y2="20.6066" gradientUnits="userSpaceOnUse">
<stop stop-color="#D21317"/>
<stop offset="0.2" stop-color="#E65014"/>
<stop offset="0.6" stop-color="#F39205"/>
<stop offset="1" stop-color="#FBBA06"/>
</linearGradient>
<clipPath id="clip0_3002_2707">
<rect width="168" height="167" fill="white"/>
</clipPath>
</defs>
</svg>
