<svg width="106" height="26" viewBox="0 0 106 26" fill="none" xmlns="http://www.w3.org/2000/svg">
<path d="M8.28766 1.24209C9.96873 0.570691 11.7338 0.23499 13.583 0.23499C15.4322 0.23499 17.1917 0.570691 18.8616 1.24209C20.5426 1.91349 21.9884 2.81988 23.1987 3.96127C24.4203 5.10265 25.3897 6.46223 26.107 8.04003C26.8242 9.60663 27.1828 11.2516 27.1828 12.9748C27.1828 14.6981 26.8242 16.3486 26.107 17.9264C25.3897 19.493 24.4203 20.847 23.1987 21.9884C21.9884 23.1298 20.5426 24.0362 18.8616 24.7076C17.1917 25.379 15.4322 25.7147 13.583 25.7147C11.7338 25.7147 9.96873 25.379 8.28766 24.7076C6.6178 24.0362 5.17769 23.1298 3.96732 21.9884C2.75695 20.847 1.79314 19.493 1.07588 17.9264C0.358628 16.3486 0 14.6981 0 12.9748C0 11.2516 0.358628 9.60663 1.07588 8.04003C1.79314 6.46223 2.75695 5.10265 3.96732 3.96127C5.17769 2.81988 6.6178 1.91349 8.28766 1.24209ZM9.64932 21.703C10.9045 22.2066 12.2158 22.4584 13.583 22.4584C14.9503 22.4584 16.2559 22.2066 17.4999 21.703C18.7551 21.1995 19.8366 20.5281 20.7444 19.6888C21.6521 18.8384 22.3694 17.8313 22.8961 16.6675C23.4341 15.4926 23.703 14.2617 23.703 12.9748C23.703 11.688 23.4341 10.4627 22.8961 9.2989C22.3694 8.12395 21.6521 7.11685 20.7444 6.2776C19.8366 5.42716 18.7551 4.75016 17.4999 4.24661C16.2559 3.74306 14.9503 3.49128 13.583 3.49128C12.2158 3.49128 10.9045 3.74306 9.64932 4.24661C8.40533 4.75016 7.32945 5.42716 6.42167 6.2776C5.5139 7.11685 4.79104 8.12395 4.2531 9.2989C3.72636 10.4627 3.463 11.688 3.463 12.9748C3.463 14.2617 3.72636 15.4926 4.2531 16.6675C4.79104 17.8313 5.5139 18.8384 6.42167 19.6888C7.32945 20.5281 8.40533 21.1995 9.64932 21.703Z" fill="url(#paint0_angular_3143_3530)"/>
<path d="M49.6063 0.990316H52.9012V26L35.1827 7.92253V24.909H31.8878V0L49.6063 18.2117V0.990316Z" fill="url(#paint1_angular_3143_3530)"/>
<path d="M57.0682 0.990316H75.644V4.28018H58.7997L57.0682 0.990316ZM58.7997 21.6695H75.644V24.909H57.0682L58.7997 21.6695ZM58.7997 14.5694V11.2627H75.644V14.5694H58.7997Z" fill="url(#paint2_angular_3143_3530)"/>
<path d="M98.1851 8.79535C98.1851 10.362 97.7592 11.7887 96.9074 13.0755C96.0557 14.3512 94.935 15.3023 93.5453 15.929L98.1851 24.8586H94.8734L90.5866 16.6004C90.553 16.6004 90.5082 16.606 90.4521 16.6172C90.4073 16.6172 90.3737 16.6172 90.3513 16.6172H83.6102V24.8418H80.2985V13.3105H90.3513C91.6065 13.3105 92.6712 12.8741 93.5453 12.0013C94.4307 11.1173 94.8734 10.0486 94.8734 8.79535C94.8734 7.54207 94.4307 6.47902 93.5453 5.6062C92.6712 4.72219 91.6065 4.28018 90.3513 4.28018H80.2985V0.990316H90.3513C91.7634 0.990316 93.069 1.33721 94.2682 2.03099C95.4785 2.72477 96.4311 3.67592 97.126 4.88444C97.832 6.08177 98.1851 7.38541 98.1851 8.79535Z" fill="url(#paint3_angular_3143_3530)"/>
<path d="M106 24.8586H102.705V0.990316H106V24.8586Z" fill="url(#paint4_angular_3143_3530)"/>
<defs>
<radialGradient id="paint0_angular_3143_3530" cx="0" cy="0" r="1" gradientUnits="userSpaceOnUse" gradientTransform="translate(53 13) rotate(90) scale(13 53)">
<stop stop-color="#6C1EB0"/>
<stop offset="0.260417" stop-color="#881686"/>
<stop offset="0.541667" stop-color="#5B0963"/>
<stop offset="0.765625" stop-color="#382FA0"/>
<stop offset="1" stop-color="#0E88F2"/>
</radialGradient>
<radialGradient id="paint1_angular_3143_3530" cx="0" cy="0" r="1" gradientUnits="userSpaceOnUse" gradientTransform="translate(53 13) rotate(90) scale(13 53)">
<stop stop-color="#6C1EB0"/>
<stop offset="0.260417" stop-color="#881686"/>
<stop offset="0.541667" stop-color="#5B0963"/>
<stop offset="0.765625" stop-color="#382FA0"/>
<stop offset="1" stop-color="#0E88F2"/>
</radialGradient>
<radialGradient id="paint2_angular_3143_3530" cx="0" cy="0" r="1" gradientUnits="userSpaceOnUse" gradientTransform="translate(53 13) rotate(90) scale(13 53)">
<stop stop-color="#6C1EB0"/>
<stop offset="0.260417" stop-color="#881686"/>
<stop offset="0.541667" stop-color="#5B0963"/>
<stop offset="0.765625" stop-color="#382FA0"/>
<stop offset="1" stop-color="#0E88F2"/>
</radialGradient>
<radialGradient id="paint3_angular_3143_3530" cx="0" cy="0" r="1" gradientUnits="userSpaceOnUse" gradientTransform="translate(53 13) rotate(90) scale(13 53)">
<stop stop-color="#6C1EB0"/>
<stop offset="0.260417" stop-color="#881686"/>
<stop offset="0.541667" stop-color="#5B0963"/>
<stop offset="0.765625" stop-color="#382FA0"/>
<stop offset="1" stop-color="#0E88F2"/>
</radialGradient>
<radialGradient id="paint4_angular_3143_3530" cx="0" cy="0" r="1" gradientUnits="userSpaceOnUse" gradientTransform="translate(53 13) rotate(90) scale(13 53)">
<stop stop-color="#6C1EB0"/>
<stop offset="0.260417" stop-color="#881686"/>
<stop offset="0.541667" stop-color="#5B0963"/>
<stop offset="0.765625" stop-color="#382FA0"/>
<stop offset="1" stop-color="#0E88F2"/>
</radialGradient>
</defs>
</svg>
