<svg width="185" height="46" viewBox="0 0 185 46" fill="none" xmlns="http://www.w3.org/2000/svg">
<path d="M14.4354 2.32809C17.3635 1.16151 20.438 0.578223 23.6589 0.578223C26.8798 0.578223 29.9445 1.16151 32.8531 2.32809C35.7812 3.49466 38.2993 5.06954 40.4075 7.05271C42.5353 9.03589 44.2238 11.3982 45.4731 14.1397C46.7224 16.8617 47.3471 19.7198 47.3471 22.714C47.3471 25.7082 46.7224 28.576 45.4731 31.3175C44.2238 34.0395 42.5353 36.3921 40.4075 38.3753C38.2993 40.3584 35.7812 41.9333 32.8531 43.0999C29.9445 44.2665 26.8798 44.8497 23.6589 44.8497C20.438 44.8497 17.3635 44.2665 14.4354 43.0999C11.5269 41.9333 9.01849 40.3584 6.91027 38.3753C4.80205 36.3921 3.12329 34.0395 1.87397 31.3175C0.624657 28.576 0 25.7082 0 22.714C0 19.7198 0.624657 16.8617 1.87397 14.1397C3.12329 11.3982 4.80205 9.03589 6.91027 7.05271C9.01849 5.06954 11.5269 3.49466 14.4354 2.32809ZM16.8072 37.8795C18.9935 38.7544 21.2774 39.1919 23.6589 39.1919C26.0404 39.1919 28.3146 38.7544 30.4813 37.8795C32.6676 37.0045 34.5514 35.838 36.1325 34.3797C37.7137 32.9021 38.963 31.1522 39.8805 29.1301C40.8175 27.0886 41.286 24.9499 41.286 22.714C41.286 20.478 40.8175 18.349 39.8805 16.327C38.963 14.2855 37.7137 12.5356 36.1325 11.0774C34.5514 9.59974 32.6676 8.42344 30.4813 7.54851C28.3146 6.67358 26.0404 6.23611 23.6589 6.23611C21.2774 6.23611 18.9935 6.67358 16.8072 7.54851C14.6404 8.42344 12.7664 9.59974 11.1853 11.0774C9.60411 12.5356 8.34503 14.2855 7.40805 16.327C6.49058 18.349 6.03185 20.478 6.03185 22.714C6.03185 24.9499 6.49058 27.0886 7.40805 29.1301C8.34503 31.1522 9.60411 32.9021 11.1853 34.3797C12.7664 35.838 14.6404 37.0045 16.8072 37.8795Z" fill="white"/>
<path d="M86.4042 1.89062H92.1432V45.3455L61.2812 13.9355V43.4499H55.5422V0.169922L86.4042 31.8133V1.89062Z" fill="white"/>
<path d="M99.4014 1.89062H131.757V7.60684H102.417L99.4014 1.89062ZM102.417 37.8211H131.757V43.4499H99.4014L102.417 37.8211ZM102.417 25.4846V19.7392H131.757V25.4846H102.417Z" fill="white"/>
<path d="M171.019 15.4521C171.019 18.1741 170.277 20.653 168.793 22.889C167.31 25.1055 165.358 26.7581 162.937 27.8469L171.019 43.3624H165.25L157.784 29.0135C157.725 29.0135 157.647 29.0232 157.55 29.0427C157.471 29.0427 157.413 29.0427 157.374 29.0427H145.632V43.3332H139.864V23.2973H157.374C159.56 23.2973 161.415 22.539 162.937 21.0224C164.479 19.4865 165.25 17.6297 165.25 15.4521C165.25 13.2744 164.479 11.4274 162.937 9.91082C161.415 8.37483 159.56 7.60684 157.374 7.60684H139.864V1.89062H157.374C159.833 1.89062 162.108 2.49335 164.196 3.69881C166.304 4.90427 167.964 6.55692 169.174 8.65675C170.404 10.7371 171.019 13.0022 171.019 15.4521Z" fill="white"/>
<path d="M184.631 43.3624H178.892V1.89062H184.631V43.3624Z" fill="white"/>
</svg>
