<svg width="24" height="24" viewBox="0 0 24 24" fill="none" xmlns="http://www.w3.org/2000/svg">
<path d="M19.5 0.75H6C4.7595 0.75 3.75 1.7595 3.75 3V4.5H3C2.586 4.5 2.25 4.836 2.25 5.25C2.25 5.664 2.586 6 3 6H3.75V11.25H3C2.586 11.25 2.25 11.586 2.25 12C2.25 12.414 2.586 12.75 3 12.75H3.75V18H3C2.586 18 2.25 18.336 2.25 18.75C2.25 19.164 2.586 19.5 3 19.5H3.75V21C3.75 22.2405 4.7595 23.25 6 23.25H19.5C20.7405 23.25 21.75 22.2405 21.75 21V3C21.75 1.7595 20.7405 0.75 19.5 0.75ZM20.25 21C20.25 21.4132 19.9132 21.75 19.5 21.75H6C5.58675 21.75 5.25 21.4132 5.25 21V19.5H6C6.414 19.5 6.75 19.164 6.75 18.75C6.75 18.336 6.414 18 6 18H5.25V12.75H6C6.414 12.75 6.75 12.414 6.75 12C6.75 11.586 6.414 11.25 6 11.25H5.25V6H6C6.414 6 6.75 5.664 6.75 5.25C6.75 4.836 6.414 4.5 6 4.5H5.25V3C5.25 2.58675 5.58675 2.25 6 2.25H19.5C19.9132 2.25 20.25 2.58675 20.25 3V21ZM12.6562 12C14.3108 12 15.6562 10.6545 15.6562 9C15.6562 7.3455 14.3108 6 12.6562 6C11.0017 6 9.65625 7.3455 9.65625 9C9.65625 10.6545 11.0017 12 12.6562 12ZM12.6562 7.5C13.4835 7.5 14.1562 8.17275 14.1562 9C14.1562 9.82725 13.4835 10.5 12.6562 10.5C11.829 10.5 11.1562 9.82725 11.1562 9C11.1562 8.17275 11.829 7.5 12.6562 7.5ZM12.6562 12.75C10.6027 12.75 8.81025 14.1375 8.298 16.1243C8.18175 16.5758 8.27925 17.046 8.56575 17.4165C8.853 17.7878 9.2865 18 9.75525 18H15.5565C16.0253 18 16.4587 17.787 16.746 17.4165C17.0325 17.0468 17.13 16.5758 17.0138 16.1243C16.5015 14.1375 14.7105 12.75 12.6562 12.75ZM9.75525 16.5L9.75075 16.4985C10.092 15.1747 11.2867 14.25 12.6562 14.25C14.0258 14.25 15.2205 15.1748 15.5573 16.5H9.756H9.75525Z" fill="black"/>
</svg>
