<svg width="22" height="22" viewBox="0 0 22 22" fill="none" xmlns="http://www.w3.org/2000/svg">
<path d="M11 0C4.93263 0 0 4.93263 0 11C0 17.0674 4.93263 22 11 22C17.0674 22 22 17.0674 22 11C22 4.93263 17.0674 0 11 0ZM19.2674 6.78526H16.4884C16.1179 5.11789 15.5621 3.65895 14.8211 2.52422C16.7432 3.40422 18.3179 4.90947 19.2674 6.78526ZM20.2863 11C20.2863 11.8568 20.1705 12.7137 19.9389 13.501H16.7895C16.8821 12.6905 16.9284 11.8568 16.9284 11C16.9284 10.1432 16.8821 9.30948 16.7895 8.49895H19.9621C20.1705 9.28632 20.2863 10.1432 20.2863 11ZM1.71369 11C1.71369 10.1432 1.82948 9.28632 2.06106 8.49895H5.23368C5.14105 9.30948 5.09474 10.1432 5.09474 11C5.09474 11.8568 5.14105 12.6905 5.23368 13.501H2.06106C1.82948 12.7137 1.71369 11.8568 1.71369 11ZM6.78526 11C6.78526 10.1663 6.85473 9.33263 6.97052 8.49895H10.1663V13.501H6.97052C6.85473 12.6674 6.78526 11.8337 6.78526 11ZM11.8568 1.9221C13.1305 2.52421 14.1495 4.46948 14.7053 6.80843H11.8568V1.9221ZM10.1432 1.9221V6.80843H7.29474C7.85053 4.46948 8.86947 2.52421 10.1432 1.9221ZM10.1432 15.2147V20.1011C8.86947 19.499 7.85053 17.5537 7.29474 15.2147H10.1432ZM11.8568 20.0779V15.1916H14.7053C14.1495 17.5305 13.1305 19.4758 11.8568 20.0779ZM11.8568 13.501V8.49895H15.0526C15.1684 9.33263 15.2379 10.1663 15.2379 11C15.2379 11.8337 15.1684 12.6674 15.0526 13.501H11.8568ZM7.17895 2.54737C6.46105 3.68211 5.8821 5.14106 5.51158 6.80843H2.73263C3.6821 4.90948 5.25684 3.40421 7.17895 2.54737ZM2.73263 15.2147H5.51158C5.8821 16.8821 6.43789 18.341 7.17895 19.4758C5.25684 18.5958 3.6821 17.0905 2.73263 15.2147ZM14.8211 19.4526C15.5389 18.3179 16.1179 16.8589 16.4884 15.1916H19.2674C18.3179 17.0905 16.7432 18.5958 14.8211 19.4526Z" fill="white"/>
</svg>
