<svg width="24" height="24" viewBox="0 0 24 24" fill="none" xmlns="http://www.w3.org/2000/svg">
<path d="M9.33359 12C9.33359 13.4727 10.5273 14.6668 12 14.6668C13.4727 14.6668 14.6664 13.4727 14.6664 12C14.6664 10.5273 13.4727 9.3332 12 9.3332C10.5273 9.3332 9.33359 10.5273 9.33359 12Z" fill="white"/>
<path fill-rule="evenodd" clip-rule="evenodd" d="M15.2328 5.48828C14.3891 5.44961 14.1359 5.44141 12 5.44141C9.86406 5.44141 9.61094 5.44961 8.76719 5.48828C7.9875 5.52383 7.56406 5.65391 7.28203 5.76367C6.90859 5.90859 6.64219 6.08203 6.36172 6.36211C6.08203 6.6418 5.90859 6.90859 5.76328 7.28164C5.65391 7.56367 5.52344 7.9875 5.48828 8.76719C5.47031 9.15898 5.45859 9.42344 5.45156 9.80781C5.44375 10.2516 5.44141 10.8555 5.44141 12C5.44141 14.1359 5.44922 14.3891 5.48828 15.2328C5.52344 16.0125 5.65391 16.4363 5.76328 16.7184C5.90859 17.0914 6.08203 17.3582 6.36172 17.6379C6.47656 17.7523 6.58906 17.8492 6.70703 17.9336C6.87813 18.0551 7.06172 18.1508 7.28203 18.2363C7.56406 18.3461 7.9875 18.4762 8.76719 18.5121C9.61094 18.5504 9.86406 18.5586 12 18.5586C14.1359 18.5586 14.3891 18.5504 15.2328 18.5121C15.7312 18.4891 16.0844 18.4277 16.3477 18.3574C16.4961 18.318 16.6164 18.2758 16.718 18.2363C17.0914 18.0914 17.3578 17.918 17.6383 17.6379C17.918 17.3582 18.0914 17.0914 18.2367 16.7184C18.3461 16.4363 18.4766 16.0125 18.5117 15.2328C18.5508 14.3891 18.5586 14.1359 18.5586 12C18.5586 9.86406 18.5508 9.61094 18.5117 8.76719C18.4883 8.2543 18.4242 7.89531 18.3516 7.6293C18.3141 7.49102 18.2742 7.37813 18.2367 7.28164C18.0914 6.90859 17.918 6.6418 17.6383 6.36211C17.4906 6.21484 17.3477 6.09727 17.1906 5.99766C17.0484 5.90781 16.8953 5.83242 16.718 5.76367C16.4359 5.65391 16.0125 5.52383 15.2328 5.48828ZM7.89219 12C7.89219 9.73125 9.73125 7.8918 12 7.8918C14.2688 7.8918 16.1078 9.73125 16.1078 12C16.1078 14.2688 14.2688 16.1082 12 16.1082C9.73125 16.1082 7.89219 14.2688 7.89219 12ZM16.9102 8.44531C17.107 8.26953 17.2305 8.01406 17.2305 7.72969C17.2305 7.19922 16.8008 6.76953 16.2703 6.76953C15.7398 6.76953 15.3102 7.19922 15.3102 7.72969C15.3102 8.25977 15.7398 8.68945 16.2703 8.68945C16.5164 8.68945 16.7406 8.59727 16.9102 8.44531Z" fill="white"/>
<path fill-rule="evenodd" clip-rule="evenodd" d="M12 24C18.6273 24 24 18.6273 24 12C24 5.37266 18.6273 0 12 0C5.37266 0 0 5.37266 0 12C0 18.6273 5.37266 24 12 24ZM8.70156 4.04805C9.55469 4.00938 9.82734 4 12 4C14.1727 4 14.4453 4.00938 15.2984 4.04805C16.15 4.08711 16.7313 4.22227 17.2406 4.41992C17.7664 4.62461 18.2125 4.89805 18.657 5.34258C18.8641 5.54922 19.0336 5.75586 19.1766 5.9707C19.3414 6.21875 19.4703 6.47773 19.5797 6.75977C19.7781 7.26875 19.9133 7.85 19.9516 8.70156C19.9906 9.55508 20 9.82734 20 12C20 14.1727 19.9906 14.4453 19.9516 15.2984C19.9133 16.15 19.7781 16.7313 19.5797 17.2402C19.3758 17.7664 19.1023 18.2125 18.657 18.6574C18.2125 19.102 17.7664 19.3754 17.2406 19.5801C16.7313 19.7777 16.15 19.9129 15.2984 19.952C14.4453 19.991 14.1727 20 12 20C9.82734 20 9.55469 19.991 8.70156 19.952C7.85 19.9129 7.26875 19.7777 6.75938 19.5801C6.39687 19.4391 6.07188 19.2652 5.76016 19.0254C5.61953 18.9172 5.48125 18.7957 5.34297 18.6574C4.89766 18.2125 4.62422 17.7664 4.42031 17.2402C4.22188 16.7313 4.08672 16.15 4.04844 15.2984C4.00938 14.4453 4 14.1727 4 12C4 9.82734 4.00938 9.55508 4.04844 8.70156C4.08672 7.85 4.22188 7.26875 4.42031 6.75977C4.62422 6.23359 4.89766 5.7875 5.34297 5.34258C5.7875 4.89805 6.23359 4.62461 6.75938 4.41992C7.26875 4.22227 7.85 4.08711 8.70156 4.04805Z" fill="white"/>
</svg>
