<svg width="24" height="24" viewBox="0 0 24 24" fill="none" xmlns="http://www.w3.org/2000/svg">
<path fill-rule="evenodd" clip-rule="evenodd" d="M20.4853 3.51472C25.1716 8.20101 25.1716 15.799 20.4853 20.4853C15.799 25.1716 8.20101 25.1716 3.51472 20.4853C-1.17157 15.799 -1.17157 8.20101 3.51472 3.51472C8.20101 -1.17157 15.799 -1.17157 20.4853 3.51472ZM12.8292 10.8126C12.8154 10.8268 12.798 10.8447 12.7753 10.8691C12.7753 10.7581 12.7747 10.6519 12.7741 10.5492C12.7727 10.2874 12.7713 10.0482 12.7804 9.81044C12.7855 9.65568 12.7411 9.6081 12.5819 9.60937C11.6983 9.61635 10.8141 9.61825 9.93055 9.6081C9.74788 9.60557 9.71045 9.65821 9.71172 9.83518C9.7225 11.4513 9.72568 13.0682 9.72568 14.6843C9.72504 15.9979 9.71933 17.3115 9.70665 18.6252C9.70474 18.8015 9.76247 18.8338 9.92294 18.8326C10.8065 18.8256 11.6907 18.8262 12.5743 18.8319C12.724 18.8332 12.7912 18.8009 12.7791 18.6359C12.7694 18.5039 12.7717 18.3705 12.774 18.2373C12.775 18.1792 12.776 18.1211 12.776 18.0632C12.776 17.647 12.7764 17.2307 12.7768 16.8145C12.7778 15.7736 12.7789 14.7324 12.7734 13.6917C12.7696 13.0821 12.9561 12.5639 13.4337 12.1725C14.3167 11.4469 15.5573 11.83 15.8738 12.9204C15.9728 13.2597 15.9969 13.6086 15.9975 13.96L15.998 14.5053C15.9993 15.8681 16.0005 17.2314 15.9944 18.5941C15.9931 18.7812 16.0419 18.8351 16.2316 18.8332C17.0993 18.8231 17.9676 18.8231 18.8353 18.8332C19.0263 18.8351 19.0726 18.7806 19.0713 18.5941C19.0651 17.2528 19.066 15.9119 19.0669 14.5711L19.0675 13.6251C19.0675 13.2261 19.0377 12.8303 18.9774 12.4358C18.7237 10.772 17.7298 9.68485 16.1764 9.44573C14.833 9.23895 13.6805 9.58527 12.8743 10.7619C12.8641 10.7767 12.8513 10.7899 12.8292 10.8126ZM8.02481 15.261C8.02423 16.3708 8.02366 17.4807 8.02897 18.5903C8.02961 18.7711 7.99345 18.8358 7.79619 18.8332C6.92087 18.8218 6.04492 18.8243 5.1696 18.8313C5.00722 18.8326 4.95204 18.792 4.95267 18.6214C4.95711 15.684 4.95648 12.7472 4.95204 9.80983C4.95204 9.65696 4.98946 9.60559 5.14993 9.60685C6.04174 9.61446 6.93292 9.6151 7.8241 9.60622C8.0017 9.60432 8.02961 9.66901 8.02897 9.82632C8.02441 10.9984 8.02471 12.1702 8.02501 13.3418L8.02517 14.2207C8.02517 14.5674 8.02499 14.9142 8.02481 15.261ZM8.17295 7.1902C8.4514 6.09923 7.68835 5.16873 6.51364 5.16746C5.74045 5.16682 5.12519 5.53915 4.88479 6.15441C4.49978 7.13946 5.08205 8.1594 6.12673 8.32875C7.11051 8.48859 7.96236 8.01415 8.17295 7.1902Z" fill="white"/>
</svg>
