<svg width="24" height="24" viewBox="0 0 24 24" fill="none" xmlns="http://www.w3.org/2000/svg">
<path d="M8.24754 13.64H9.15135V12.9292H6.47021V13.64H7.37385V17.8168H8.24754V13.64Z" fill="white"/>
<path d="M10.6915 17.9952H11.4665L11.4661 14.3891H10.6911V17.1282C10.6182 17.2064 10.5387 17.2709 10.4506 17.3219C10.3636 17.3725 10.2906 17.3974 10.2348 17.3974C10.162 17.3974 10.1089 17.3795 10.0753 17.34C10.0442 17.3025 10.0273 17.2408 10.0273 17.1556V14.3891H9.2523V17.4039C9.2523 17.6197 9.29859 17.7792 9.3884 17.8871C9.48029 17.9952 9.61378 18.0486 9.79375 18.0486C9.93942 18.0486 10.0893 18.0115 10.244 17.9331C10.3994 17.8577 10.5475 17.7463 10.6915 17.6V17.9952Z" fill="white"/>
<path fill-rule="evenodd" clip-rule="evenodd" d="M14.5317 17.7387C14.6534 17.6019 14.714 17.4062 14.714 17.1516L14.7138 15.1506C14.7138 14.8554 14.6496 14.6302 14.5197 14.4764C14.4059 14.3408 14.247 14.3427 14.0429 14.345C14.0153 14.3453 13.9869 14.3457 13.9577 14.3457C13.8373 14.3457 13.5009 14.3736 13.3823 14.4316C13.2663 14.4884 13.1554 14.5726 13.0504 14.6816V13.0084H12.2667V17.995H13.0504V17.7189C13.1516 17.8302 13.2633 17.9109 13.3818 17.963C13.4998 18.0159 13.8524 18.0415 14.0051 18.0415C14.2345 18.0415 14.4109 17.8751 14.5317 17.7387ZM13.2104 14.9532C13.2643 14.9292 13.3197 14.9183 13.3749 14.9183C13.4791 14.9183 13.7774 14.9497 13.8338 15.0118C13.8888 15.0749 13.9153 15.1667 13.9153 15.2891V17.1518C13.9153 17.2671 13.8923 17.3489 13.8483 17.3999C13.8035 17.4516 13.5167 17.4771 13.4213 17.4771C13.3557 17.4771 13.2943 17.4631 13.2344 17.4382C13.1747 17.4126 13.1129 17.3679 13.0506 17.3099V15.0634C13.1034 15.0142 13.1564 14.9763 13.2104 14.9532Z" fill="white"/>
<path fill-rule="evenodd" clip-rule="evenodd" d="M16.0503 16.2195H17.5329L17.5333 15.3C17.5333 14.9582 17.4381 14.6965 17.2477 14.5138C17.0571 14.3316 16.7844 14.2405 16.4293 14.2405C16.0816 14.2405 15.8003 14.3385 15.5809 14.5352C15.361 14.7318 15.251 14.9882 15.251 15.2998V16.9196C15.251 17.2671 15.3522 17.5404 15.5506 17.7371C15.7497 17.9356 16.0235 18.0342 16.3708 18.0342C16.7574 18.0342 17.0475 17.9413 17.2407 17.7556C17.4367 17.5677 17.5331 17.2891 17.5331 16.9196V16.7346H16.7355V16.8987C16.7355 17.1111 16.7087 17.2473 16.6584 17.3101C16.607 17.3723 16.5174 17.4035 16.3886 17.4035C16.265 17.4035 16.1777 17.3677 16.1258 17.2939C16.075 17.2202 16.0503 17.0886 16.0503 16.8989V16.2195ZM16.1303 14.9709C16.1844 14.9036 16.272 14.8711 16.3959 14.8711C16.5137 14.8711 16.6011 14.9036 16.6537 14.9709C16.7078 15.034 16.7355 15.1427 16.7355 15.294V15.6584H16.0503V15.294C16.0503 15.1427 16.0758 15.034 16.1303 14.9709Z" fill="white"/>
<path d="M11.6193 7.12368C11.5559 7.18072 11.5237 7.25351 11.5237 7.34404L11.5235 9.6086C11.5235 9.72284 11.5535 9.81022 11.6131 9.87273C11.6726 9.9364 11.7585 9.96674 11.8696 9.96674C11.9836 9.96674 12.0739 9.9354 12.1412 9.87157C12.2086 9.80773 12.2423 9.71969 12.2423 9.6086V7.34404C12.2423 7.25351 12.2081 7.18072 12.1398 7.12368C12.0712 7.06781 11.9813 7.04045 11.8697 7.04045C11.7672 7.04045 11.6842 7.06781 11.6193 7.12368Z" fill="white"/>
<path fill-rule="evenodd" clip-rule="evenodd" d="M24 12C24 18.6274 18.6274 24 12 24C5.37258 24 0 18.6274 0 12C0 5.37258 5.37258 0 12 0C18.6274 0 24 5.37258 24 12ZM7.3132 11.5385H16.6866C18.1764 11.5385 19.3846 12.6584 19.3846 14.1394V16.7027C19.3846 18.1837 18.1764 19.3846 16.6866 19.3846H7.3132C5.82305 19.3846 4.61538 18.1835 4.61538 16.7027V14.119C4.61538 12.638 5.82305 11.5385 7.3132 11.5385ZM14.8361 10.5098C14.6687 10.5973 14.5062 10.6427 14.3483 10.6427C14.1527 10.6427 14.0073 10.5796 13.9083 10.455C13.8107 10.3323 13.761 10.1471 13.761 9.89942V6.42548H14.6009V9.61241C14.6009 9.71007 14.6202 9.78104 14.6555 9.82481C14.6897 9.86958 14.7474 9.89146 14.8262 9.89146C14.888 9.89146 14.9665 9.86261 15.0614 9.80425C15.1554 9.74522 15.2423 9.67111 15.3201 9.58075V6.42548H16.1619V10.5819H15.3201V10.1218C15.1664 10.2912 15.0049 10.421 14.8361 10.5098ZM12.7736 10.3836C12.5547 10.5857 12.2547 10.6872 11.8726 10.6872C11.5044 10.6872 11.2098 10.582 10.989 10.3733C10.7686 10.1637 10.6582 9.884 10.6582 9.53051V7.37587C10.6582 7.05272 10.7713 6.79721 10.9974 6.60654C11.2235 6.41586 11.5285 6.32052 11.9107 6.32052C12.2589 6.32052 12.5439 6.42133 12.7672 6.62162C12.9882 6.82241 13.0995 7.08306 13.0995 7.39925V9.54692C13.0995 9.90274 12.9907 10.1801 12.7736 10.3836ZM9.48746 10.582H8.54049L8.54033 8.01787L7.41252 4.61538H8.36653L8.98152 6.86801H9.04107L9.6272 4.61538H10.5896L9.48746 7.91291V10.582Z" fill="white"/>
</svg>
