<svg width="15" height="18" viewBox="0 0 15 18" fill="none" xmlns="http://www.w3.org/2000/svg">
<path d="M10.6235 2.0251C10.6235 3.14116 9.72934 4.0502 8.63158 4.0502H5.53306C4.98418 4.0502 4.48842 3.82519 4.12545 3.45617C3.76248 3.08715 3.54116 2.58313 3.54116 2.0251C3.54116 0.909045 4.4353 0 5.53306 0L8.63158 0C9.18046 0 9.67622 0.225011 10.0392 0.59403C10.4022 0.963048 10.6235 1.46707 10.6235 2.0251Z" fill="white"/>
<path d="M13.1289 2.72624C12.9241 2.55545 12.694 2.41874 12.4472 2.32122C12.1904 2.22221 11.9337 2.42922 11.8806 2.69923C11.5796 4.23831 10.2428 5.39937 8.63158 5.39937H5.53306C4.64777 5.39937 3.8156 5.04835 3.18704 4.40932C2.72724 3.94553 2.413 3.35356 2.28405 2.70823C2.23093 2.43822 1.96534 2.22221 1.70861 2.33022C0.681673 2.75324 0 3.70728 0 5.62438L0 14.3998C0 17.1 1.58467 18 3.54116 18H10.6235C12.58 18 14.1646 17.1 14.1646 14.3998V5.62438C14.1646 4.15731 13.7663 3.25726 13.1289 2.72624ZM3.54116 9.22456H7.08232C7.44529 9.22456 7.74629 9.53057 7.74629 9.89959C7.74629 10.2686 7.44529 10.5746 7.08232 10.5746H3.54116C3.17819 10.5746 2.87719 10.2686 2.87719 9.89959C2.87719 9.53057 3.17819 9.22456 3.54116 9.22456ZM10.6235 14.1748H3.54116C3.17819 14.1748 2.87719 13.8688 2.87719 13.4998C2.87719 13.1308 3.17819 12.8247 3.54116 12.8247H10.6235C10.9865 12.8247 11.2874 13.1308 11.2874 13.4998C11.2874 13.8688 10.9865 14.1748 10.6235 14.1748Z" fill="white"/>
</svg>
