<svg width="40" height="40" viewBox="0 0 40 40" fill="none" xmlns="http://www.w3.org/2000/svg">
<rect width="40" height="40" rx="20" fill="url(#paint0_linear_3009_2844)"/>
<path d="M28.9527 14.9467V25.6132C28.9527 26.4834 28.244 27.2818 27.3738 27.3894L27.0957 27.4253C25.6245 27.6227 23.5522 28.2327 21.8836 28.9325C21.3005 29.1747 20.6546 28.7351 20.6546 28.0982V15.6195C20.6546 15.2876 20.843 14.9826 21.139 14.8211C22.7807 13.933 25.2656 13.1435 26.9522 13H27.006C28.0825 13 28.9527 13.8702 28.9527 14.9467ZM18.8227 14.8211C17.181 13.933 14.696 13.1435 13.0095 13H12.9467C11.8702 13 11 13.8702 11 14.9467V25.6132C11 26.4834 11.7087 27.2818 12.5789 27.3894L12.857 27.4253C14.3282 27.6227 16.4005 28.2327 18.0691 28.9325C18.6522 29.1747 19.2982 28.7351 19.2982 28.0982V15.6195C19.2993 15.4557 19.2557 15.2947 19.1719 15.154C19.088 15.0132 18.9673 14.8981 18.8227 14.8211ZM13.7003 17.5393H15.7187C15.8972 17.5393 16.0683 17.6102 16.1945 17.7364C16.3207 17.8626 16.3916 18.0337 16.3916 18.2121C16.3916 18.3906 16.3207 18.5617 16.1945 18.6879C16.0683 18.8141 15.8972 18.885 15.7187 18.885H13.7003C13.5218 18.885 13.3507 18.8141 13.2245 18.6879C13.0983 18.5617 13.0274 18.3906 13.0274 18.2121C13.0274 18.0337 13.0983 17.8626 13.2245 17.7364C13.3507 17.6102 13.5218 17.5393 13.7003 17.5393ZM16.3916 21.5763H13.7003C13.5218 21.5763 13.3507 21.5054 13.2245 21.3792C13.0983 21.253 13.0274 21.0819 13.0274 20.9034C13.0274 20.725 13.0983 20.5539 13.2245 20.4277C13.3507 20.3015 13.5218 20.2306 13.7003 20.2306H16.3916C16.57 20.2306 16.7411 20.3015 16.8673 20.4277C16.9935 20.5539 17.0644 20.725 17.0644 20.9034C17.0644 21.0819 16.9935 21.253 16.8673 21.3792C16.7411 21.5054 16.57 21.5763 16.3916 21.5763Z" fill="white"/>
<defs>
<linearGradient id="paint0_linear_3009_2844" x1="20.0209" y1="-0.192957" x2="20.0209" y2="68.5347" gradientUnits="userSpaceOnUse">
<stop stop-color="#6C0E70"/>
<stop offset="1" stop-color="white"/>
</linearGradient>
</defs>
</svg>
