<svg width="40" height="40" viewBox="0 0 40 40" fill="none" xmlns="http://www.w3.org/2000/svg">
<rect width="40" height="40" rx="20" fill="url(#paint0_linear_3009_2850)"/>
<path d="M24 13H16C13.792 13 12 14.784 12 16.984V22.568C12 24.768 13.792 26.552 16 26.552H17.2C17.416 26.552 17.704 26.696 17.84 26.872L19.04 28.464C19.568 29.168 20.432 29.168 20.96 28.464L22.16 26.872C22.312 26.672 22.552 26.552 22.8 26.552H24C26.208 26.552 28 24.768 28 22.568V16.984C28 14.784 26.208 13 24 13ZM16.8 21C16.352 21 16 20.64 16 20.2C16 19.76 16.36 19.4 16.8 19.4C17.24 19.4 17.6 19.76 17.6 20.2C17.6 20.64 17.248 21 16.8 21ZM20 21C19.552 21 19.2 20.64 19.2 20.2C19.2 19.76 19.56 19.4 20 19.4C20.44 19.4 20.8 19.76 20.8 20.2C20.8 20.64 20.448 21 20 21ZM23.2 21C22.752 21 22.4 20.64 22.4 20.2C22.4 19.76 22.76 19.4 23.2 19.4C23.64 19.4 24 19.76 24 20.2C24 20.64 23.648 21 23.2 21Z" fill="white"/>
<defs>
<linearGradient id="paint0_linear_3009_2850" x1="20.0209" y1="0.128587" x2="20.0209" y2="85.8098" gradientUnits="userSpaceOnUse">
<stop stop-color="#3F2895"/>
<stop offset="1" stop-color="white"/>
</linearGradient>
</defs>
</svg>
