<svg width="40" height="40" viewBox="0 0 40 40" fill="none" xmlns="http://www.w3.org/2000/svg">
<rect width="40" height="40" rx="20" fill="url(#paint0_linear_3009_2825)"/>
<path d="M23.45 10.833H16.25C13.766 10.833 11.75 12.849 11.75 15.333V24.333C11.75 26.817 13.766 28.833 16.25 28.833H23.45C25.934 28.833 27.95 26.817 27.95 24.333V15.333C27.95 12.849 25.934 10.833 23.45 10.833ZM17.024 25.8C16.853 25.971 16.628 26.061 16.394 26.061C16.2755 26.0622 16.1579 26.0397 16.0482 25.9949C15.9385 25.9501 15.8388 25.8838 15.755 25.8C15.67 25.7167 15.6023 25.6173 15.556 25.5076C15.5096 25.3979 15.4855 25.2801 15.485 25.161C15.485 24.927 15.584 24.693 15.755 24.522C15.836 24.441 15.935 24.378 16.043 24.333C16.268 24.243 16.511 24.243 16.736 24.333C16.79 24.351 16.844 24.378 16.889 24.414C16.943 24.441 16.988 24.486 17.024 24.522C17.195 24.693 17.294 24.927 17.294 25.161C17.2935 25.2801 17.2694 25.3979 17.223 25.5076C17.1767 25.6173 17.109 25.7167 17.024 25.8ZM15.485 21.561C15.485 21.444 15.512 21.327 15.557 21.219C15.6021 21.1094 15.6685 21.0098 15.7523 20.9259C15.8361 20.8421 15.9357 20.7756 16.0453 20.7305C16.1549 20.6853 16.2723 20.6623 16.3909 20.6627C16.5094 20.6631 16.6267 20.687 16.736 20.733C16.79 20.751 16.844 20.778 16.889 20.814C16.943 20.841 16.988 20.886 17.024 20.922C17.105 21.012 17.177 21.102 17.222 21.219C17.267 21.327 17.285 21.444 17.285 21.561C17.2865 21.7092 17.251 21.8555 17.1817 21.9865C17.1125 22.1175 17.0116 22.2292 16.8883 22.3114C16.765 22.3937 16.6231 22.4438 16.4755 22.4573C16.3279 22.4709 16.1792 22.4474 16.043 22.389C15.8786 22.3215 15.738 22.2068 15.6387 22.0595C15.5394 21.9121 15.4859 21.7387 15.485 21.561ZM20.624 25.8C20.543 25.881 20.444 25.944 20.336 25.989C20.1725 26.0599 19.9913 26.0798 19.8163 26.046C19.6413 26.0123 19.4805 25.9266 19.355 25.8C19.27 25.7167 19.2023 25.6173 19.156 25.5076C19.1096 25.3979 19.0855 25.2801 19.085 25.161C19.085 25.098 19.094 25.044 19.103 24.981L19.157 24.819L19.238 24.657C19.274 24.612 19.31 24.567 19.355 24.522C19.5255 24.358 19.7529 24.2664 19.9895 24.2664C20.2261 24.2664 20.4535 24.358 20.624 24.522C20.795 24.693 20.885 24.927 20.885 25.161C20.885 25.404 20.795 25.629 20.624 25.8ZM20.624 22.2C20.5402 22.2838 20.4405 22.3501 20.3308 22.3949C20.2211 22.4397 20.1035 22.4622 19.985 22.461C19.751 22.461 19.526 22.371 19.355 22.2C19.27 22.1167 19.2023 22.0173 19.156 21.9076C19.1096 21.7979 19.0855 21.6801 19.085 21.561C19.085 21.327 19.184 21.093 19.355 20.922C19.688 20.589 20.291 20.589 20.624 20.922C20.705 21.012 20.777 21.102 20.822 21.219C20.867 21.327 20.885 21.444 20.885 21.561C20.885 21.804 20.795 22.029 20.624 22.2ZM17.15 18.447C16.223 18.447 15.458 17.691 15.458 16.755V15.855C15.458 14.928 16.214 14.163 17.15 14.163H22.55C23.477 14.163 24.242 14.919 24.242 15.855V16.755C24.242 17.682 23.486 18.447 22.55 18.447H17.15ZM24.224 25.8C24.0981 25.9259 23.9373 26.0112 23.7625 26.0449C23.5876 26.0786 23.4067 26.0591 23.243 25.989C23.1356 25.9454 23.0378 25.8812 22.955 25.8C22.8712 25.7162 22.8049 25.6165 22.7601 25.5068C22.7153 25.3971 22.6928 25.2795 22.694 25.161C22.694 24.927 22.784 24.693 22.955 24.522C23.198 24.27 23.603 24.198 23.936 24.333C24.044 24.378 24.143 24.441 24.224 24.522C24.395 24.693 24.485 24.927 24.485 25.161C24.485 25.404 24.395 25.629 24.224 25.8ZM24.422 21.903C24.3549 22.0695 24.2391 22.2119 24.0898 22.3114C23.9404 22.411 23.7645 22.4631 23.585 22.461C23.351 22.461 23.126 22.371 22.955 22.2C22.87 22.1167 22.8023 22.0173 22.756 21.9076C22.7096 21.7979 22.6855 21.6801 22.685 21.561C22.685 21.327 22.784 21.093 22.955 20.922C23.288 20.589 23.891 20.589 24.224 20.922C24.395 21.093 24.494 21.327 24.494 21.561C24.494 21.678 24.467 21.795 24.422 21.903Z" fill="white"/>
<defs>
<linearGradient id="paint0_linear_3009_2825" x1="19.9602" y1="76.8638" x2="19.9602" y2="-2.32082" gradientUnits="userSpaceOnUse">
<stop stop-color="white"/>
<stop offset="1" stop-color="#6C1EB0"/>
</linearGradient>
</defs>
</svg>
