<svg width="40" height="40" viewBox="0 0 40 40" fill="none" xmlns="http://www.w3.org/2000/svg">
<rect width="40" height="40" rx="20" fill="url(#paint0_linear_3006_2819)"/>
<path d="M23.6235 12.0251C23.6235 13.1412 22.7293 14.0502 21.6316 14.0502H18.5331C17.9842 14.0502 17.4884 13.8252 17.1255 13.4562C16.7625 13.0872 16.5412 12.5831 16.5412 12.0251C16.5412 10.909 17.4353 10 18.5331 10H21.6316C22.1805 10 22.6762 10.225 23.0392 10.594C23.4022 10.963 23.6235 11.4671 23.6235 12.0251Z" fill="white"/>
<path d="M26.1289 12.7262C25.9241 12.5554 25.694 12.4187 25.4472 12.3212C25.1904 12.2222 24.9337 12.4292 24.8806 12.6992C24.5796 14.2383 23.2428 15.3994 21.6316 15.3994H18.5331C17.6478 15.3994 16.8156 15.0484 16.187 14.4093C15.7272 13.9455 15.413 13.3536 15.284 12.7082C15.2309 12.4382 14.9653 12.2222 14.7086 12.3302C13.6817 12.7532 13 13.7073 13 15.6244V24.3998C13 27.1 14.5847 28 16.5412 28H23.6235C25.58 28 27.1646 27.1 27.1646 24.3998V15.6244C27.1646 14.1573 26.7663 13.2573 26.1289 12.7262ZM16.5412 19.2246H20.0823C20.4453 19.2246 20.7463 19.5306 20.7463 19.8996C20.7463 20.2686 20.4453 20.5746 20.0823 20.5746H16.5412C16.1782 20.5746 15.8772 20.2686 15.8772 19.8996C15.8772 19.5306 16.1782 19.2246 16.5412 19.2246ZM23.6235 24.1748H16.5412C16.1782 24.1748 15.8772 23.8688 15.8772 23.4998C15.8772 23.1308 16.1782 22.8247 16.5412 22.8247H23.6235C23.9865 22.8247 24.2874 23.1308 24.2874 23.4998C24.2874 23.8688 23.9865 24.1748 23.6235 24.1748Z" fill="white"/>
<defs>
<linearGradient id="paint0_linear_3006_2819" x1="20.1043" y1="-0.0642927" x2="23.7521" y2="85.5515" gradientUnits="userSpaceOnUse">
<stop stop-color="#385AD6"/>
<stop offset="1" stop-color="white"/>
</linearGradient>
</defs>
</svg>
