<svg width="40" height="40" viewBox="0 0 40 40" fill="none" xmlns="http://www.w3.org/2000/svg">
<rect width="40" height="40" rx="20" fill="url(#paint0_linear_3009_2854)"/>
<path d="M11.75 29.1673H28.25H11.75ZM14.1333 16.6823H12.6667C12.1625 16.6823 11.75 17.0948 11.75 17.599V25.5006C11.75 26.0048 12.1625 26.4173 12.6667 26.4173H14.1333C14.6375 26.4173 15.05 26.0048 15.05 25.5006V17.599C15.05 17.0948 14.6375 16.6823 14.1333 16.6823ZM20.7333 13.7582H19.2667C18.7625 13.7582 18.35 14.1707 18.35 14.6748V25.5006C18.35 26.0048 18.7625 26.4173 19.2667 26.4173H20.7333C21.2375 26.4173 21.65 26.0048 21.65 25.5006V14.6748C21.65 14.1707 21.2375 13.7582 20.7333 13.7582ZM27.3333 10.834H25.8667C25.3625 10.834 24.95 11.2465 24.95 11.7507V25.5006C24.95 26.0048 25.3625 26.4173 25.8667 26.4173H27.3333C27.8375 26.4173 28.25 26.0048 28.25 25.5006V11.7507C28.25 11.2465 27.8375 10.834 27.3333 10.834Z" fill="white"/>
<defs>
<linearGradient id="paint0_linear_3009_2854" x1="20.1043" y1="-0.128624" x2="20.1043" y2="71.6195" gradientUnits="userSpaceOnUse">
<stop stop-color="#117EEC"/>
<stop offset="1" stop-color="white"/>
</linearGradient>
</defs>
</svg>
