<svg width="40" height="40" viewBox="0 0 40 40" fill="none" xmlns="http://www.w3.org/2000/svg">
<rect width="40" height="40" rx="20" fill="url(#paint0_linear_3009_2833)"/>
<path d="M24.9116 21.968L28.7446 17.0258C29.1594 16.4951 29.0598 15.7156 28.5123 15.2678C28.3844 15.1659 28.2375 15.0905 28.0801 15.0461C27.9227 15.0017 27.7581 14.9892 27.5958 15.0093C27.4335 15.0294 27.2768 15.0817 27.135 15.1631C26.9932 15.2445 26.8691 15.3534 26.77 15.4834L22.937 20.4256C22.8019 20.6057 22.5106 20.655 22.3397 20.5086L19.3032 18.1204C18.6892 17.6394 17.9094 17.4238 17.1461 17.5233C16.3662 17.6228 15.6859 18.0209 15.2047 18.6345L11.2556 23.7592C11.1565 23.8887 11.0838 24.0366 11.0418 24.1942C10.9998 24.3519 10.9893 24.5162 11.0109 24.6779C11.0325 24.8396 11.0857 24.9955 11.1675 25.1367C11.2494 25.2778 11.3583 25.4015 11.4879 25.5005C11.7202 25.683 11.9857 25.7659 12.2512 25.7659C12.6162 25.7659 12.9813 25.6001 13.2302 25.2849L17.1793 20.1603C17.219 20.1073 17.2614 20.0702 17.3023 20.0447C17.3976 19.9852 17.5201 19.9702 17.6288 19.9988C17.6835 20.0132 17.7341 20.0401 17.7766 20.0774L20.8131 22.4655C21.4271 22.9465 22.1904 23.1621 22.9702 23.0626C23.7501 22.9797 24.4304 22.5816 24.9116 21.968Z" fill="white"/>
<defs>
<linearGradient id="paint0_linear_3009_2833" x1="20" y1="8.37209" x2="20" y2="46.5116" gradientUnits="userSpaceOnUse">
<stop stop-color="#881686"/>
<stop offset="1" stop-color="#382FA0"/>
</linearGradient>
</defs>
</svg>
